M48
; DRILL file {KiCad (5.1.12-1-10_14)} date Wednesday, 25 May 2022 at 15:41:46
; FORMAT={-:-/ absolute / metric / decimal}
; #@! TF.CreationDate,2022-05-25T15:41:46+08:00
; #@! TF.GenerationSoftware,Kicad,Pcbnew,(5.1.12-1-10_14)
; #@! TF.FileFunction,Plated,1,2,PTH
FMAT,2
METRIC
T1C0.300
T2C0.400
T3C0.500
T4C0.700
%
G90
G05
T1
X1.0Y17.5
X1.0Y14.0
X1.0Y12.0
X1.0Y10.0
X1.0Y8.0
X1.0Y6.0
X1.0Y2.5
X2.0Y19.0
X2.0Y1.0
X4.0Y19.0
X4.0Y1.0
X5.0Y15.4
X5.0Y14.7
X5.0Y3.0
X6.0Y19.0
X6.0Y15.4
X6.0Y14.7
X6.0Y1.0
X7.15Y12.0
X7.15Y8.0
X7.85Y12.0
X7.85Y8.0
X9.0Y8.5
X9.0Y7.25
X10.0Y19.0
X10.0Y5.0
X10.0Y1.0
X11.0Y14.35
X12.0Y19.0
X12.0Y1.0
X12.5Y14.35
X12.5Y4.0
X13.2Y11.65
X13.75Y7.75
X13.95Y9.6
X14.0Y6.0
X15.25Y4.7
X15.25Y3.95
X15.25Y1.7
X15.25Y0.95
X15.5Y16.5
X15.5Y15.0
X15.5Y13.5
X15.5Y11.75
X15.5Y9.75
X15.5Y7.5
X16.0Y19.0
X17.25Y16.05
X17.5Y13.8
X18.0Y19.0
X18.55Y4.0
X18.75Y11.25
X19.15Y4.0
X19.2Y15.9
X20.0Y19.0
X21.15Y3.3
X21.59Y13.81
X21.59Y11.27
X21.59Y8.73
X21.59Y6.19
X22.0Y19.0
X22.0Y1.0
X23.75Y16.75
X24.0Y19.0
X24.0Y1.0
X24.257Y6.19
X24.257Y3.65
X25.4Y6.19
X25.4Y3.65
X26.0Y19.0
X26.0Y1.0
X26.543Y6.19
X26.543Y3.65
X28.0Y19.0
X28.0Y1.0
X29.0Y17.5
X29.0Y2.5
T2
X9.0Y12.5
X9.85Y12.5
X11.75Y13.05
X14.0Y14.0
X14.0Y10.5
X14.9Y11.1
X20.0Y14.0
X21.463Y12.54
X21.463Y10.0
X21.463Y7.46
T3
X5.35Y5.15
X9.85Y13.55
X15.0Y17.25
T4
G00X3.65Y15.85
M15
G01X1.85Y15.85
M16
G05
G00X3.65Y4.15
M15
G01X1.85Y4.15
M16
G05
T0
M30
