%TF.GenerationSoftware,KiCad,Pcbnew,(5.1.12-1-10_14)*%
%TF.CreationDate,2022-05-25T15:41:46+08:00*%
%TF.ProjectId,USB2TTL,55534232-5454-44c2-9e6b-696361645f70,V1.0*%
%TF.SameCoordinates,Original*%
%TF.FileFunction,Copper,L2,Bot*%
%TF.FilePolarity,Positive*%
%FSLAX46Y46*%
G04 Gerber Fmt 4.6, Leading zero omitted, Abs format (unit mm)*
G04 Created by KiCad (PCBNEW (5.1.12-1-10_14)) date 2022-05-25 15:41:46*
%MOMM*%
%LPD*%
G01*
G04 APERTURE LIST*
%TA.AperFunction,ComponentPad*%
%ADD10O,3.200000X1.300000*%
%TD*%
%TA.AperFunction,ViaPad*%
%ADD11C,0.700000*%
%TD*%
%TA.AperFunction,ViaPad*%
%ADD12C,0.500000*%
%TD*%
%TA.AperFunction,ViaPad*%
%ADD13C,0.800000*%
%TD*%
%TA.AperFunction,Conductor*%
%ADD14C,0.500000*%
%TD*%
%TA.AperFunction,Conductor*%
%ADD15C,0.200000*%
%TD*%
%TA.AperFunction,Conductor*%
%ADD16C,0.254000*%
%TD*%
%TA.AperFunction,Conductor*%
%ADD17C,0.350000*%
%TD*%
%ADD18C,0.350000*%
%ADD19C,0.300000*%
%ADD20O,2.500000X0.700000*%
G04 APERTURE END LIST*
D10*
%TO.P,J1,5*%
%TO.N,Net-(J1-Pad5)*%
X2750000Y4150000D03*
X2750000Y15850000D03*
%TD*%
D11*
%TO.N,GND*%
X11750000Y13050000D03*
D12*
X15500000Y11750000D03*
X15500000Y9750000D03*
X15500000Y7500000D03*
X15500000Y15000000D03*
X15500000Y16500000D03*
X13950000Y9600000D03*
X13750000Y7750000D03*
X14000000Y6000000D03*
X9000000Y8500000D03*
X9000000Y7250000D03*
X10000000Y5000000D03*
X12500000Y4000000D03*
X7150000Y12000000D03*
X7850000Y12000000D03*
X7150000Y8000000D03*
X7850000Y8000000D03*
X15500000Y13500000D03*
X17500000Y13800000D03*
X17250000Y16050000D03*
X19200000Y15900000D03*
X18550000Y4000000D03*
X19150000Y4000000D03*
X21150000Y3300000D03*
X15250000Y4700000D03*
X15250000Y3950000D03*
X15250000Y1700000D03*
X15250000Y950000D03*
X12500000Y14350000D03*
X11000000Y14350000D03*
X13200000Y11650000D03*
X2000000Y19000000D03*
X4000000Y19000000D03*
X6000000Y19000000D03*
X10000000Y19000000D03*
X12000000Y19000000D03*
X16000000Y19000000D03*
X18000000Y19000000D03*
X20000000Y19000000D03*
X22000000Y19000000D03*
X24000000Y19000000D03*
X26000000Y19000000D03*
X28000000Y19000000D03*
X1000000Y14000000D03*
X1000000Y12000000D03*
X1000000Y10000000D03*
X1000000Y8000000D03*
X1000000Y6000000D03*
X2000000Y1000000D03*
X4000000Y1000000D03*
X6000000Y1000000D03*
X10000000Y1000000D03*
X12000000Y1000000D03*
X22000000Y1000000D03*
X24000000Y1000000D03*
X26000000Y1000000D03*
X28000000Y1000000D03*
X21590000Y13810000D03*
X21590000Y6190000D03*
X18750000Y11250000D03*
X21590000Y11270000D03*
X21590000Y8730000D03*
X25400000Y3650000D03*
X24257000Y3650000D03*
X26543000Y3650000D03*
X26543000Y6190000D03*
X25400000Y6190000D03*
X24257000Y6190000D03*
X23750000Y16750000D03*
X29000000Y17500000D03*
X29000000Y2500000D03*
X1000000Y17500000D03*
X1000000Y2500000D03*
X6000000Y14700000D03*
X5000000Y14700000D03*
X5000000Y15400000D03*
X6000000Y15400000D03*
X5000000Y3000000D03*
D13*
%TO.N,+5V*%
X5350000Y5150000D03*
X15000000Y17250000D03*
X9850000Y13550000D03*
D11*
%TO.N,/RXD*%
X9000000Y12500000D03*
X21463000Y7460000D03*
%TO.N,/TXD*%
X9850000Y12500000D03*
X21463000Y10000000D03*
%TO.N,/BOOT*%
X14000000Y10500000D03*
X14000000Y14000000D03*
X21463000Y12540000D03*
%TO.N,/RESET*%
X20000000Y14000000D03*
X14900000Y11100000D03*
%TD*%
D14*
%TO.N,+5V*%
X5350000Y5150000D02*
X5350000Y11350000D01*
X7550000Y13550000D02*
X9850000Y13550000D01*
X5350000Y11350000D02*
X7550000Y13550000D01*
X9850000Y15200000D02*
X9850000Y13550000D01*
X11900000Y17250000D02*
X9850000Y15200000D01*
X15000000Y17250000D02*
X11900000Y17250000D01*
D15*
%TO.N,/RXD*%
X9000000Y12500000D02*
X13024000Y8476000D01*
X13024000Y8476000D02*
X20447000Y8476000D01*
X20447000Y8476000D02*
X21463000Y7460000D01*
%TO.N,/TXD*%
X9850000Y12500000D02*
X13366000Y8984000D01*
X20447000Y8984000D02*
X21463000Y10000000D01*
X13366000Y8984000D02*
X20447000Y8984000D01*
%TO.N,/BOOT*%
X14000000Y10500000D02*
X14000000Y14000000D01*
X19423000Y10500000D02*
X21463000Y12540000D01*
X14000000Y10500000D02*
X19423000Y10500000D01*
%TO.N,/RESET*%
X20000000Y14000000D02*
X17100000Y11100000D01*
X14900000Y11100000D02*
X17100000Y11100000D01*
%TD*%
D16*
%TO.N,GND*%
X28329529Y19664241D02*
X28646504Y19568541D01*
X28938858Y19413093D01*
X29195448Y19203823D01*
X29406505Y18948699D01*
X29563988Y18657441D01*
X29661899Y18341141D01*
X29698001Y17997656D01*
X29698000Y16802000D01*
X27364833Y16802000D01*
X27350000Y16803461D01*
X27335167Y16802000D01*
X27290798Y16797630D01*
X27233871Y16780361D01*
X27181406Y16752319D01*
X27135421Y16714579D01*
X27097681Y16668594D01*
X27069639Y16616129D01*
X27052370Y16559202D01*
X27046539Y16500000D01*
X27048001Y16485156D01*
X27048000Y3514834D01*
X27046539Y3500000D01*
X27052370Y3440798D01*
X27069639Y3383871D01*
X27097681Y3331406D01*
X27132139Y3289420D01*
X27135421Y3285421D01*
X27181406Y3247681D01*
X27233871Y3219639D01*
X27290798Y3202370D01*
X27350000Y3196539D01*
X27364833Y3198000D01*
X29698001Y3198000D01*
X29698000Y2014774D01*
X29664241Y1670471D01*
X29568539Y1353491D01*
X29413093Y1061142D01*
X29203825Y804554D01*
X28948699Y593494D01*
X28657441Y436012D01*
X28341141Y338101D01*
X27997665Y302000D01*
X2014774Y302000D01*
X1670471Y335759D01*
X1353491Y431461D01*
X1061142Y586907D01*
X804554Y796175D01*
X593494Y1051301D01*
X436012Y1342559D01*
X338101Y1658859D01*
X302000Y2002335D01*
X302000Y4150000D01*
X868515Y4150000D01*
X886413Y3968276D01*
X939420Y3793536D01*
X1025499Y3632495D01*
X1141341Y3491341D01*
X1282495Y3375499D01*
X1443536Y3289420D01*
X1618276Y3236413D01*
X1754462Y3223000D01*
X3745538Y3223000D01*
X3881724Y3236413D01*
X4056464Y3289420D01*
X4217505Y3375499D01*
X4358659Y3491341D01*
X4474501Y3632495D01*
X4560580Y3793536D01*
X4613587Y3968276D01*
X4631485Y4150000D01*
X4613587Y4331724D01*
X4560580Y4506464D01*
X4474501Y4667505D01*
X4358659Y4808659D01*
X4217505Y4924501D01*
X4056464Y5010580D01*
X3881724Y5063587D01*
X3745538Y5077000D01*
X1754462Y5077000D01*
X1618276Y5063587D01*
X1443536Y5010580D01*
X1282495Y4924501D01*
X1141341Y4808659D01*
X1025499Y4667505D01*
X939420Y4506464D01*
X886413Y4331724D01*
X868515Y4150000D01*
X302000Y4150000D01*
X302000Y5216679D01*
X4673000Y5216679D01*
X4673000Y5083321D01*
X4699016Y4952526D01*
X4750050Y4829320D01*
X4824140Y4718437D01*
X4918437Y4624140D01*
X5029320Y4550050D01*
X5152526Y4499016D01*
X5283321Y4473000D01*
X5416679Y4473000D01*
X5547474Y4499016D01*
X5670680Y4550050D01*
X5781563Y4624140D01*
X5875860Y4718437D01*
X5949950Y4829320D01*
X6000984Y4952526D01*
X6027000Y5083321D01*
X6027000Y5216679D01*
X6000984Y5347474D01*
X5949950Y5470680D01*
X5877000Y5579857D01*
X5877000Y11131711D01*
X7768291Y13023000D01*
X8654155Y13023000D01*
X8600311Y12987023D01*
X8512977Y12899689D01*
X8444360Y12796996D01*
X8397095Y12682889D01*
X8373000Y12561754D01*
X8373000Y12438246D01*
X8397095Y12317111D01*
X8444360Y12203004D01*
X8512977Y12100311D01*
X8600311Y12012977D01*
X8703004Y11944360D01*
X8817111Y11897095D01*
X8938246Y11873000D01*
X9061754Y11873000D01*
X9088518Y11878324D01*
X12744323Y8222519D01*
X12756131Y8208131D01*
X12813537Y8161019D01*
X12879030Y8126012D01*
X12950095Y8104455D01*
X13005481Y8099000D01*
X13005490Y8099000D01*
X13023999Y8097177D01*
X13042508Y8099000D01*
X20290842Y8099000D01*
X20841324Y7548518D01*
X20836000Y7521754D01*
X20836000Y7398246D01*
X20860095Y7277111D01*
X20907360Y7163004D01*
X20975977Y7060311D01*
X21063311Y6972977D01*
X21166004Y6904360D01*
X21280111Y6857095D01*
X21401246Y6833000D01*
X21524754Y6833000D01*
X21645889Y6857095D01*
X21759996Y6904360D01*
X21862689Y6972977D01*
X21950023Y7060311D01*
X22018640Y7163004D01*
X22065905Y7277111D01*
X22090000Y7398246D01*
X22090000Y7521754D01*
X22065905Y7642889D01*
X22018640Y7756996D01*
X21950023Y7859689D01*
X21862689Y7947023D01*
X21759996Y8015640D01*
X21645889Y8062905D01*
X21524754Y8087000D01*
X21401246Y8087000D01*
X21374482Y8081676D01*
X20726677Y8729481D01*
X20726251Y8730000D01*
X20726677Y8730519D01*
X21374482Y9378324D01*
X21401246Y9373000D01*
X21524754Y9373000D01*
X21645889Y9397095D01*
X21759996Y9444360D01*
X21862689Y9512977D01*
X21950023Y9600311D01*
X22018640Y9703004D01*
X22065905Y9817111D01*
X22090000Y9938246D01*
X22090000Y10061754D01*
X22065905Y10182889D01*
X22018640Y10296996D01*
X21950023Y10399689D01*
X21862689Y10487023D01*
X21759996Y10555640D01*
X21645889Y10602905D01*
X21524754Y10627000D01*
X21401246Y10627000D01*
X21280111Y10602905D01*
X21166004Y10555640D01*
X21063311Y10487023D01*
X20975977Y10399689D01*
X20907360Y10296996D01*
X20860095Y10182889D01*
X20836000Y10061754D01*
X20836000Y9938246D01*
X20841324Y9911482D01*
X20290842Y9361000D01*
X13522159Y9361000D01*
X10471676Y12411482D01*
X10477000Y12438246D01*
X10477000Y12561754D01*
X10452905Y12682889D01*
X10405640Y12796996D01*
X10337023Y12899689D01*
X10249689Y12987023D01*
X10237851Y12994933D01*
X10281563Y13024140D01*
X10375860Y13118437D01*
X10449950Y13229320D01*
X10500984Y13352526D01*
X10527000Y13483321D01*
X10527000Y13616679D01*
X10500984Y13747474D01*
X10449950Y13870680D01*
X10377000Y13979857D01*
X10377000Y14061754D01*
X13373000Y14061754D01*
X13373000Y13938246D01*
X13397095Y13817111D01*
X13444360Y13703004D01*
X13512977Y13600311D01*
X13600311Y13512977D01*
X13623001Y13497816D01*
X13623000Y11002183D01*
X13600311Y10987023D01*
X13512977Y10899689D01*
X13444360Y10796996D01*
X13397095Y10682889D01*
X13373000Y10561754D01*
X13373000Y10438246D01*
X13397095Y10317111D01*
X13444360Y10203004D01*
X13512977Y10100311D01*
X13600311Y10012977D01*
X13703004Y9944360D01*
X13817111Y9897095D01*
X13938246Y9873000D01*
X14061754Y9873000D01*
X14182889Y9897095D01*
X14296996Y9944360D01*
X14399689Y10012977D01*
X14487023Y10100311D01*
X14502183Y10123000D01*
X19404488Y10123000D01*
X19423000Y10121177D01*
X19441512Y10123000D01*
X19441519Y10123000D01*
X19496905Y10128455D01*
X19567970Y10150012D01*
X19633463Y10185019D01*
X19690869Y10232131D01*
X19702677Y10246519D01*
X21374482Y11918324D01*
X21401246Y11913000D01*
X21524754Y11913000D01*
X21645889Y11937095D01*
X21759996Y11984360D01*
X21862689Y12052977D01*
X21950023Y12140311D01*
X22018640Y12243004D01*
X22065905Y12357111D01*
X22090000Y12478246D01*
X22090000Y12601754D01*
X22065905Y12722889D01*
X22018640Y12836996D01*
X21950023Y12939689D01*
X21862689Y13027023D01*
X21759996Y13095640D01*
X21645889Y13142905D01*
X21524754Y13167000D01*
X21401246Y13167000D01*
X21280111Y13142905D01*
X21166004Y13095640D01*
X21063311Y13027023D01*
X20975977Y12939689D01*
X20907360Y12836996D01*
X20860095Y12722889D01*
X20836000Y12601754D01*
X20836000Y12478246D01*
X20841324Y12451482D01*
X19266842Y10877000D01*
X17410158Y10877000D01*
X19911482Y13378324D01*
X19938246Y13373000D01*
X20061754Y13373000D01*
X20182889Y13397095D01*
X20296996Y13444360D01*
X20399689Y13512977D01*
X20487023Y13600311D01*
X20555640Y13703004D01*
X20602905Y13817111D01*
X20627000Y13938246D01*
X20627000Y14061754D01*
X20602905Y14182889D01*
X20555640Y14296996D01*
X20487023Y14399689D01*
X20399689Y14487023D01*
X20296996Y14555640D01*
X20182889Y14602905D01*
X20061754Y14627000D01*
X19938246Y14627000D01*
X19817111Y14602905D01*
X19703004Y14555640D01*
X19600311Y14487023D01*
X19512977Y14399689D01*
X19444360Y14296996D01*
X19397095Y14182889D01*
X19373000Y14061754D01*
X19373000Y13938246D01*
X19378324Y13911482D01*
X16943842Y11477000D01*
X15402183Y11477000D01*
X15387023Y11499689D01*
X15299689Y11587023D01*
X15196996Y11655640D01*
X15082889Y11702905D01*
X14961754Y11727000D01*
X14838246Y11727000D01*
X14717111Y11702905D01*
X14603004Y11655640D01*
X14500311Y11587023D01*
X14412977Y11499689D01*
X14377000Y11445845D01*
X14377000Y13497817D01*
X14399689Y13512977D01*
X14487023Y13600311D01*
X14555640Y13703004D01*
X14602905Y13817111D01*
X14627000Y13938246D01*
X14627000Y14061754D01*
X14602905Y14182889D01*
X14555640Y14296996D01*
X14487023Y14399689D01*
X14399689Y14487023D01*
X14296996Y14555640D01*
X14182889Y14602905D01*
X14061754Y14627000D01*
X13938246Y14627000D01*
X13817111Y14602905D01*
X13703004Y14555640D01*
X13600311Y14487023D01*
X13512977Y14399689D01*
X13444360Y14296996D01*
X13397095Y14182889D01*
X13373000Y14061754D01*
X10377000Y14061754D01*
X10377000Y14981711D01*
X12118291Y16723000D01*
X14570143Y16723000D01*
X14679320Y16650050D01*
X14802526Y16599016D01*
X14933321Y16573000D01*
X15066679Y16573000D01*
X15197474Y16599016D01*
X15320680Y16650050D01*
X15431563Y16724140D01*
X15525860Y16818437D01*
X15599950Y16929320D01*
X15650984Y17052526D01*
X15677000Y17183321D01*
X15677000Y17316679D01*
X15650984Y17447474D01*
X15599950Y17570680D01*
X15525860Y17681563D01*
X15431563Y17775860D01*
X15320680Y17849950D01*
X15197474Y17900984D01*
X15066679Y17927000D01*
X14933321Y17927000D01*
X14802526Y17900984D01*
X14679320Y17849950D01*
X14570143Y17777000D01*
X11925881Y17777000D01*
X11900000Y17779549D01*
X11874119Y17777000D01*
X11796690Y17769374D01*
X11697350Y17739239D01*
X11605798Y17690304D01*
X11525552Y17624448D01*
X11509054Y17604344D01*
X9495666Y15590955D01*
X9475552Y15574448D01*
X9409696Y15494202D01*
X9360762Y15402650D01*
X9360761Y15402649D01*
X9330626Y15303309D01*
X9320451Y15200000D01*
X9323000Y15174119D01*
X9323001Y14077000D01*
X7575881Y14077000D01*
X7550000Y14079549D01*
X7524119Y14077000D01*
X7446690Y14069374D01*
X7347350Y14039239D01*
X7255798Y13990304D01*
X7175552Y13924448D01*
X7159054Y13904344D01*
X4995662Y11740951D01*
X4975553Y11724448D01*
X4919084Y11655640D01*
X4909696Y11644201D01*
X4860761Y11552649D01*
X4830626Y11453309D01*
X4820451Y11350000D01*
X4823001Y11324109D01*
X4823000Y5579857D01*
X4750050Y5470680D01*
X4699016Y5347474D01*
X4673000Y5216679D01*
X302000Y5216679D01*
X302000Y7831452D01*
X1923000Y7831452D01*
X1923000Y7668548D01*
X1954782Y7508773D01*
X2017123Y7358269D01*
X2107628Y7222819D01*
X2222819Y7107628D01*
X2358269Y7017123D01*
X2508773Y6954782D01*
X2668548Y6923000D01*
X2831452Y6923000D01*
X2991227Y6954782D01*
X3141731Y7017123D01*
X3277181Y7107628D01*
X3392372Y7222819D01*
X3482877Y7358269D01*
X3545218Y7508773D01*
X3577000Y7668548D01*
X3577000Y7831452D01*
X3545218Y7991227D01*
X3482877Y8141731D01*
X3392372Y8277181D01*
X3277181Y8392372D01*
X3141731Y8482877D01*
X2991227Y8545218D01*
X2831452Y8577000D01*
X2668548Y8577000D01*
X2508773Y8545218D01*
X2358269Y8482877D01*
X2222819Y8392372D01*
X2107628Y8277181D01*
X2017123Y8141731D01*
X1954782Y7991227D01*
X1923000Y7831452D01*
X302000Y7831452D01*
X302000Y12331452D01*
X1923000Y12331452D01*
X1923000Y12168548D01*
X1954782Y12008773D01*
X2017123Y11858269D01*
X2107628Y11722819D01*
X2222819Y11607628D01*
X2358269Y11517123D01*
X2508773Y11454782D01*
X2668548Y11423000D01*
X2831452Y11423000D01*
X2991227Y11454782D01*
X3141731Y11517123D01*
X3277181Y11607628D01*
X3392372Y11722819D01*
X3482877Y11858269D01*
X3545218Y12008773D01*
X3577000Y12168548D01*
X3577000Y12331452D01*
X3545218Y12491227D01*
X3482877Y12641731D01*
X3392372Y12777181D01*
X3277181Y12892372D01*
X3141731Y12982877D01*
X2991227Y13045218D01*
X2831452Y13077000D01*
X2668548Y13077000D01*
X2508773Y13045218D01*
X2358269Y12982877D01*
X2222819Y12892372D01*
X2107628Y12777181D01*
X2017123Y12641731D01*
X1954782Y12491227D01*
X1923000Y12331452D01*
X302000Y12331452D01*
X302000Y15850000D01*
X868515Y15850000D01*
X886413Y15668276D01*
X939420Y15493536D01*
X1025499Y15332495D01*
X1141341Y15191341D01*
X1282495Y15075499D01*
X1443536Y14989420D01*
X1618276Y14936413D01*
X1754462Y14923000D01*
X3745538Y14923000D01*
X3881724Y14936413D01*
X4056464Y14989420D01*
X4217505Y15075499D01*
X4358659Y15191341D01*
X4474501Y15332495D01*
X4560580Y15493536D01*
X4613587Y15668276D01*
X4631485Y15850000D01*
X4613587Y16031724D01*
X4560580Y16206464D01*
X4474501Y16367505D01*
X4358659Y16508659D01*
X4217505Y16624501D01*
X4056464Y16710580D01*
X3881724Y16763587D01*
X3745538Y16777000D01*
X1754462Y16777000D01*
X1618276Y16763587D01*
X1443536Y16710580D01*
X1282495Y16624501D01*
X1141341Y16508659D01*
X1025499Y16367505D01*
X939420Y16206464D01*
X886413Y16031724D01*
X868515Y15850000D01*
X302000Y15850000D01*
X302000Y17985226D01*
X335759Y18329529D01*
X431459Y18646504D01*
X586907Y18938858D01*
X796177Y19195448D01*
X1051301Y19406505D01*
X1342559Y19563988D01*
X1658859Y19661899D01*
X2002335Y19698000D01*
X27985226Y19698000D01*
X28329529Y19664241D01*
%TA.AperFunction,Conductor*%
D17*
G36*
X28329529Y19664241D02*
G01*
X28646504Y19568541D01*
X28938858Y19413093D01*
X29195448Y19203823D01*
X29406505Y18948699D01*
X29563988Y18657441D01*
X29661899Y18341141D01*
X29698001Y17997656D01*
X29698000Y16802000D01*
X27364833Y16802000D01*
X27350000Y16803461D01*
X27335167Y16802000D01*
X27290798Y16797630D01*
X27233871Y16780361D01*
X27181406Y16752319D01*
X27135421Y16714579D01*
X27097681Y16668594D01*
X27069639Y16616129D01*
X27052370Y16559202D01*
X27046539Y16500000D01*
X27048001Y16485156D01*
X27048000Y3514834D01*
X27046539Y3500000D01*
X27052370Y3440798D01*
X27069639Y3383871D01*
X27097681Y3331406D01*
X27132139Y3289420D01*
X27135421Y3285421D01*
X27181406Y3247681D01*
X27233871Y3219639D01*
X27290798Y3202370D01*
X27350000Y3196539D01*
X27364833Y3198000D01*
X29698001Y3198000D01*
X29698000Y2014774D01*
X29664241Y1670471D01*
X29568539Y1353491D01*
X29413093Y1061142D01*
X29203825Y804554D01*
X28948699Y593494D01*
X28657441Y436012D01*
X28341141Y338101D01*
X27997665Y302000D01*
X2014774Y302000D01*
X1670471Y335759D01*
X1353491Y431461D01*
X1061142Y586907D01*
X804554Y796175D01*
X593494Y1051301D01*
X436012Y1342559D01*
X338101Y1658859D01*
X302000Y2002335D01*
X302000Y4150000D01*
X868515Y4150000D01*
X886413Y3968276D01*
X939420Y3793536D01*
X1025499Y3632495D01*
X1141341Y3491341D01*
X1282495Y3375499D01*
X1443536Y3289420D01*
X1618276Y3236413D01*
X1754462Y3223000D01*
X3745538Y3223000D01*
X3881724Y3236413D01*
X4056464Y3289420D01*
X4217505Y3375499D01*
X4358659Y3491341D01*
X4474501Y3632495D01*
X4560580Y3793536D01*
X4613587Y3968276D01*
X4631485Y4150000D01*
X4613587Y4331724D01*
X4560580Y4506464D01*
X4474501Y4667505D01*
X4358659Y4808659D01*
X4217505Y4924501D01*
X4056464Y5010580D01*
X3881724Y5063587D01*
X3745538Y5077000D01*
X1754462Y5077000D01*
X1618276Y5063587D01*
X1443536Y5010580D01*
X1282495Y4924501D01*
X1141341Y4808659D01*
X1025499Y4667505D01*
X939420Y4506464D01*
X886413Y4331724D01*
X868515Y4150000D01*
X302000Y4150000D01*
X302000Y5216679D01*
X4673000Y5216679D01*
X4673000Y5083321D01*
X4699016Y4952526D01*
X4750050Y4829320D01*
X4824140Y4718437D01*
X4918437Y4624140D01*
X5029320Y4550050D01*
X5152526Y4499016D01*
X5283321Y4473000D01*
X5416679Y4473000D01*
X5547474Y4499016D01*
X5670680Y4550050D01*
X5781563Y4624140D01*
X5875860Y4718437D01*
X5949950Y4829320D01*
X6000984Y4952526D01*
X6027000Y5083321D01*
X6027000Y5216679D01*
X6000984Y5347474D01*
X5949950Y5470680D01*
X5877000Y5579857D01*
X5877000Y11131711D01*
X7768291Y13023000D01*
X8654155Y13023000D01*
X8600311Y12987023D01*
X8512977Y12899689D01*
X8444360Y12796996D01*
X8397095Y12682889D01*
X8373000Y12561754D01*
X8373000Y12438246D01*
X8397095Y12317111D01*
X8444360Y12203004D01*
X8512977Y12100311D01*
X8600311Y12012977D01*
X8703004Y11944360D01*
X8817111Y11897095D01*
X8938246Y11873000D01*
X9061754Y11873000D01*
X9088518Y11878324D01*
X12744323Y8222519D01*
X12756131Y8208131D01*
X12813537Y8161019D01*
X12879030Y8126012D01*
X12950095Y8104455D01*
X13005481Y8099000D01*
X13005490Y8099000D01*
X13023999Y8097177D01*
X13042508Y8099000D01*
X20290842Y8099000D01*
X20841324Y7548518D01*
X20836000Y7521754D01*
X20836000Y7398246D01*
X20860095Y7277111D01*
X20907360Y7163004D01*
X20975977Y7060311D01*
X21063311Y6972977D01*
X21166004Y6904360D01*
X21280111Y6857095D01*
X21401246Y6833000D01*
X21524754Y6833000D01*
X21645889Y6857095D01*
X21759996Y6904360D01*
X21862689Y6972977D01*
X21950023Y7060311D01*
X22018640Y7163004D01*
X22065905Y7277111D01*
X22090000Y7398246D01*
X22090000Y7521754D01*
X22065905Y7642889D01*
X22018640Y7756996D01*
X21950023Y7859689D01*
X21862689Y7947023D01*
X21759996Y8015640D01*
X21645889Y8062905D01*
X21524754Y8087000D01*
X21401246Y8087000D01*
X21374482Y8081676D01*
X20726677Y8729481D01*
X20726251Y8730000D01*
X20726677Y8730519D01*
X21374482Y9378324D01*
X21401246Y9373000D01*
X21524754Y9373000D01*
X21645889Y9397095D01*
X21759996Y9444360D01*
X21862689Y9512977D01*
X21950023Y9600311D01*
X22018640Y9703004D01*
X22065905Y9817111D01*
X22090000Y9938246D01*
X22090000Y10061754D01*
X22065905Y10182889D01*
X22018640Y10296996D01*
X21950023Y10399689D01*
X21862689Y10487023D01*
X21759996Y10555640D01*
X21645889Y10602905D01*
X21524754Y10627000D01*
X21401246Y10627000D01*
X21280111Y10602905D01*
X21166004Y10555640D01*
X21063311Y10487023D01*
X20975977Y10399689D01*
X20907360Y10296996D01*
X20860095Y10182889D01*
X20836000Y10061754D01*
X20836000Y9938246D01*
X20841324Y9911482D01*
X20290842Y9361000D01*
X13522159Y9361000D01*
X10471676Y12411482D01*
X10477000Y12438246D01*
X10477000Y12561754D01*
X10452905Y12682889D01*
X10405640Y12796996D01*
X10337023Y12899689D01*
X10249689Y12987023D01*
X10237851Y12994933D01*
X10281563Y13024140D01*
X10375860Y13118437D01*
X10449950Y13229320D01*
X10500984Y13352526D01*
X10527000Y13483321D01*
X10527000Y13616679D01*
X10500984Y13747474D01*
X10449950Y13870680D01*
X10377000Y13979857D01*
X10377000Y14061754D01*
X13373000Y14061754D01*
X13373000Y13938246D01*
X13397095Y13817111D01*
X13444360Y13703004D01*
X13512977Y13600311D01*
X13600311Y13512977D01*
X13623001Y13497816D01*
X13623000Y11002183D01*
X13600311Y10987023D01*
X13512977Y10899689D01*
X13444360Y10796996D01*
X13397095Y10682889D01*
X13373000Y10561754D01*
X13373000Y10438246D01*
X13397095Y10317111D01*
X13444360Y10203004D01*
X13512977Y10100311D01*
X13600311Y10012977D01*
X13703004Y9944360D01*
X13817111Y9897095D01*
X13938246Y9873000D01*
X14061754Y9873000D01*
X14182889Y9897095D01*
X14296996Y9944360D01*
X14399689Y10012977D01*
X14487023Y10100311D01*
X14502183Y10123000D01*
X19404488Y10123000D01*
X19423000Y10121177D01*
X19441512Y10123000D01*
X19441519Y10123000D01*
X19496905Y10128455D01*
X19567970Y10150012D01*
X19633463Y10185019D01*
X19690869Y10232131D01*
X19702677Y10246519D01*
X21374482Y11918324D01*
X21401246Y11913000D01*
X21524754Y11913000D01*
X21645889Y11937095D01*
X21759996Y11984360D01*
X21862689Y12052977D01*
X21950023Y12140311D01*
X22018640Y12243004D01*
X22065905Y12357111D01*
X22090000Y12478246D01*
X22090000Y12601754D01*
X22065905Y12722889D01*
X22018640Y12836996D01*
X21950023Y12939689D01*
X21862689Y13027023D01*
X21759996Y13095640D01*
X21645889Y13142905D01*
X21524754Y13167000D01*
X21401246Y13167000D01*
X21280111Y13142905D01*
X21166004Y13095640D01*
X21063311Y13027023D01*
X20975977Y12939689D01*
X20907360Y12836996D01*
X20860095Y12722889D01*
X20836000Y12601754D01*
X20836000Y12478246D01*
X20841324Y12451482D01*
X19266842Y10877000D01*
X17410158Y10877000D01*
X19911482Y13378324D01*
X19938246Y13373000D01*
X20061754Y13373000D01*
X20182889Y13397095D01*
X20296996Y13444360D01*
X20399689Y13512977D01*
X20487023Y13600311D01*
X20555640Y13703004D01*
X20602905Y13817111D01*
X20627000Y13938246D01*
X20627000Y14061754D01*
X20602905Y14182889D01*
X20555640Y14296996D01*
X20487023Y14399689D01*
X20399689Y14487023D01*
X20296996Y14555640D01*
X20182889Y14602905D01*
X20061754Y14627000D01*
X19938246Y14627000D01*
X19817111Y14602905D01*
X19703004Y14555640D01*
X19600311Y14487023D01*
X19512977Y14399689D01*
X19444360Y14296996D01*
X19397095Y14182889D01*
X19373000Y14061754D01*
X19373000Y13938246D01*
X19378324Y13911482D01*
X16943842Y11477000D01*
X15402183Y11477000D01*
X15387023Y11499689D01*
X15299689Y11587023D01*
X15196996Y11655640D01*
X15082889Y11702905D01*
X14961754Y11727000D01*
X14838246Y11727000D01*
X14717111Y11702905D01*
X14603004Y11655640D01*
X14500311Y11587023D01*
X14412977Y11499689D01*
X14377000Y11445845D01*
X14377000Y13497817D01*
X14399689Y13512977D01*
X14487023Y13600311D01*
X14555640Y13703004D01*
X14602905Y13817111D01*
X14627000Y13938246D01*
X14627000Y14061754D01*
X14602905Y14182889D01*
X14555640Y14296996D01*
X14487023Y14399689D01*
X14399689Y14487023D01*
X14296996Y14555640D01*
X14182889Y14602905D01*
X14061754Y14627000D01*
X13938246Y14627000D01*
X13817111Y14602905D01*
X13703004Y14555640D01*
X13600311Y14487023D01*
X13512977Y14399689D01*
X13444360Y14296996D01*
X13397095Y14182889D01*
X13373000Y14061754D01*
X10377000Y14061754D01*
X10377000Y14981711D01*
X12118291Y16723000D01*
X14570143Y16723000D01*
X14679320Y16650050D01*
X14802526Y16599016D01*
X14933321Y16573000D01*
X15066679Y16573000D01*
X15197474Y16599016D01*
X15320680Y16650050D01*
X15431563Y16724140D01*
X15525860Y16818437D01*
X15599950Y16929320D01*
X15650984Y17052526D01*
X15677000Y17183321D01*
X15677000Y17316679D01*
X15650984Y17447474D01*
X15599950Y17570680D01*
X15525860Y17681563D01*
X15431563Y17775860D01*
X15320680Y17849950D01*
X15197474Y17900984D01*
X15066679Y17927000D01*
X14933321Y17927000D01*
X14802526Y17900984D01*
X14679320Y17849950D01*
X14570143Y17777000D01*
X11925881Y17777000D01*
X11900000Y17779549D01*
X11874119Y17777000D01*
X11796690Y17769374D01*
X11697350Y17739239D01*
X11605798Y17690304D01*
X11525552Y17624448D01*
X11509054Y17604344D01*
X9495666Y15590955D01*
X9475552Y15574448D01*
X9409696Y15494202D01*
X9360762Y15402650D01*
X9360761Y15402649D01*
X9330626Y15303309D01*
X9320451Y15200000D01*
X9323000Y15174119D01*
X9323001Y14077000D01*
X7575881Y14077000D01*
X7550000Y14079549D01*
X7524119Y14077000D01*
X7446690Y14069374D01*
X7347350Y14039239D01*
X7255798Y13990304D01*
X7175552Y13924448D01*
X7159054Y13904344D01*
X4995662Y11740951D01*
X4975553Y11724448D01*
X4919084Y11655640D01*
X4909696Y11644201D01*
X4860761Y11552649D01*
X4830626Y11453309D01*
X4820451Y11350000D01*
X4823001Y11324109D01*
X4823000Y5579857D01*
X4750050Y5470680D01*
X4699016Y5347474D01*
X4673000Y5216679D01*
X302000Y5216679D01*
X302000Y7831452D01*
X1923000Y7831452D01*
X1923000Y7668548D01*
X1954782Y7508773D01*
X2017123Y7358269D01*
X2107628Y7222819D01*
X2222819Y7107628D01*
X2358269Y7017123D01*
X2508773Y6954782D01*
X2668548Y6923000D01*
X2831452Y6923000D01*
X2991227Y6954782D01*
X3141731Y7017123D01*
X3277181Y7107628D01*
X3392372Y7222819D01*
X3482877Y7358269D01*
X3545218Y7508773D01*
X3577000Y7668548D01*
X3577000Y7831452D01*
X3545218Y7991227D01*
X3482877Y8141731D01*
X3392372Y8277181D01*
X3277181Y8392372D01*
X3141731Y8482877D01*
X2991227Y8545218D01*
X2831452Y8577000D01*
X2668548Y8577000D01*
X2508773Y8545218D01*
X2358269Y8482877D01*
X2222819Y8392372D01*
X2107628Y8277181D01*
X2017123Y8141731D01*
X1954782Y7991227D01*
X1923000Y7831452D01*
X302000Y7831452D01*
X302000Y12331452D01*
X1923000Y12331452D01*
X1923000Y12168548D01*
X1954782Y12008773D01*
X2017123Y11858269D01*
X2107628Y11722819D01*
X2222819Y11607628D01*
X2358269Y11517123D01*
X2508773Y11454782D01*
X2668548Y11423000D01*
X2831452Y11423000D01*
X2991227Y11454782D01*
X3141731Y11517123D01*
X3277181Y11607628D01*
X3392372Y11722819D01*
X3482877Y11858269D01*
X3545218Y12008773D01*
X3577000Y12168548D01*
X3577000Y12331452D01*
X3545218Y12491227D01*
X3482877Y12641731D01*
X3392372Y12777181D01*
X3277181Y12892372D01*
X3141731Y12982877D01*
X2991227Y13045218D01*
X2831452Y13077000D01*
X2668548Y13077000D01*
X2508773Y13045218D01*
X2358269Y12982877D01*
X2222819Y12892372D01*
X2107628Y12777181D01*
X2017123Y12641731D01*
X1954782Y12491227D01*
X1923000Y12331452D01*
X302000Y12331452D01*
X302000Y15850000D01*
X868515Y15850000D01*
X886413Y15668276D01*
X939420Y15493536D01*
X1025499Y15332495D01*
X1141341Y15191341D01*
X1282495Y15075499D01*
X1443536Y14989420D01*
X1618276Y14936413D01*
X1754462Y14923000D01*
X3745538Y14923000D01*
X3881724Y14936413D01*
X4056464Y14989420D01*
X4217505Y15075499D01*
X4358659Y15191341D01*
X4474501Y15332495D01*
X4560580Y15493536D01*
X4613587Y15668276D01*
X4631485Y15850000D01*
X4613587Y16031724D01*
X4560580Y16206464D01*
X4474501Y16367505D01*
X4358659Y16508659D01*
X4217505Y16624501D01*
X4056464Y16710580D01*
X3881724Y16763587D01*
X3745538Y16777000D01*
X1754462Y16777000D01*
X1618276Y16763587D01*
X1443536Y16710580D01*
X1282495Y16624501D01*
X1141341Y16508659D01*
X1025499Y16367505D01*
X939420Y16206464D01*
X886413Y16031724D01*
X868515Y15850000D01*
X302000Y15850000D01*
X302000Y17985226D01*
X335759Y18329529D01*
X431459Y18646504D01*
X586907Y18938858D01*
X796177Y19195448D01*
X1051301Y19406505D01*
X1342559Y19563988D01*
X1658859Y19661899D01*
X2002335Y19698000D01*
X27985226Y19698000D01*
X28329529Y19664241D01*
G37*
%TD.AperFunction*%
%TD*%
D18*
X11750000Y13050000D03*
D19*
X15500000Y11750000D03*
X15500000Y9750000D03*
X15500000Y7500000D03*
X15500000Y15000000D03*
X15500000Y16500000D03*
X13950000Y9600000D03*
X13750000Y7750000D03*
X14000000Y6000000D03*
X9000000Y8500000D03*
X9000000Y7250000D03*
X10000000Y5000000D03*
X12500000Y4000000D03*
X7150000Y12000000D03*
X7850000Y12000000D03*
X7150000Y8000000D03*
X7850000Y8000000D03*
X15500000Y13500000D03*
X17500000Y13800000D03*
X17250000Y16050000D03*
X19200000Y15900000D03*
X18550000Y4000000D03*
X19150000Y4000000D03*
X21150000Y3300000D03*
X15250000Y4700000D03*
X15250000Y3950000D03*
X15250000Y1700000D03*
X15250000Y950000D03*
X12500000Y14350000D03*
X11000000Y14350000D03*
X13200000Y11650000D03*
X2000000Y19000000D03*
X4000000Y19000000D03*
X6000000Y19000000D03*
X10000000Y19000000D03*
X12000000Y19000000D03*
X16000000Y19000000D03*
X18000000Y19000000D03*
X20000000Y19000000D03*
X22000000Y19000000D03*
X24000000Y19000000D03*
X26000000Y19000000D03*
X28000000Y19000000D03*
X1000000Y14000000D03*
X1000000Y12000000D03*
X1000000Y10000000D03*
X1000000Y8000000D03*
X1000000Y6000000D03*
X2000000Y1000000D03*
X4000000Y1000000D03*
X6000000Y1000000D03*
X10000000Y1000000D03*
X12000000Y1000000D03*
X22000000Y1000000D03*
X24000000Y1000000D03*
X26000000Y1000000D03*
X28000000Y1000000D03*
X21590000Y13810000D03*
X21590000Y6190000D03*
X18750000Y11250000D03*
X21590000Y11270000D03*
X21590000Y8730000D03*
X25400000Y3650000D03*
X24257000Y3650000D03*
X26543000Y3650000D03*
X26543000Y6190000D03*
X25400000Y6190000D03*
X24257000Y6190000D03*
X23750000Y16750000D03*
X29000000Y17500000D03*
X29000000Y2500000D03*
X1000000Y17500000D03*
X1000000Y2500000D03*
X6000000Y14700000D03*
X5000000Y14700000D03*
X5000000Y15400000D03*
X6000000Y15400000D03*
X5000000Y3000000D03*
D18*
X5350000Y5150000D03*
X15000000Y17250000D03*
X9850000Y13550000D03*
X9000000Y12500000D03*
X21463000Y7460000D03*
X9850000Y12500000D03*
X21463000Y10000000D03*
X14000000Y10500000D03*
X14000000Y14000000D03*
X21463000Y12540000D03*
X20000000Y14000000D03*
X14900000Y11100000D03*
X2750000Y7750000D03*
X2750000Y12250000D03*
D20*
X2750000Y4150000D03*
X2750000Y15850000D03*
M02*
