%TF.GenerationSoftware,KiCad,Pcbnew,(5.1.12-1-10_14)*%
%TF.CreationDate,2022-05-25T15:41:46+08:00*%
%TF.ProjectId,USB2TTL,55534232-5454-44c2-9e6b-696361645f70,V1.0*%
%TF.SameCoordinates,Original*%
%TF.FileFunction,Paste,Top*%
%TF.FilePolarity,Positive*%
%FSLAX46Y46*%
G04 Gerber Fmt 4.6, Leading zero omitted, Abs format (unit mm)*
G04 Created by KiCad (PCBNEW (5.1.12-1-10_14)) date 2022-05-25 15:41:46*
%MOMM*%
%LPD*%
G01*
G04 APERTURE LIST*
%ADD10R,3.000000X1.700000*%
%ADD11R,1.000000X0.750000*%
%ADD12R,0.950000X0.613000*%
%ADD13R,0.325000X0.300000*%
%ADD14R,0.650000X1.060000*%
%ADD15R,2.000000X1.200000*%
%ADD16R,0.250000X0.360000*%
G04 APERTURE END LIST*
D10*
%TO.C,J2*%
X25460000Y4920000D03*
X25460000Y7460000D03*
X25460000Y10000000D03*
X25460000Y12540000D03*
X25460000Y15080000D03*
%TD*%
%TO.C,R9*%
G36*
G01*
X12785000Y7190000D02*
X12415000Y7190000D01*
G75*
G02*
X12280000Y7325000I0J135000D01*
G01*
X12280000Y7595000D01*
G75*
G02*
X12415000Y7730000I135000J0D01*
G01*
X12785000Y7730000D01*
G75*
G02*
X12920000Y7595000I0J-135000D01*
G01*
X12920000Y7325000D01*
G75*
G02*
X12785000Y7190000I-135000J0D01*
G01*
G37*
G36*
G01*
X12785000Y6170000D02*
X12415000Y6170000D01*
G75*
G02*
X12280000Y6305000I0J135000D01*
G01*
X12280000Y6575000D01*
G75*
G02*
X12415000Y6710000I135000J0D01*
G01*
X12785000Y6710000D01*
G75*
G02*
X12920000Y6575000I0J-135000D01*
G01*
X12920000Y6305000D01*
G75*
G02*
X12785000Y6170000I-135000J0D01*
G01*
G37*
%TD*%
%TO.C,R8*%
G36*
G01*
X11835000Y7190000D02*
X11465000Y7190000D01*
G75*
G02*
X11330000Y7325000I0J135000D01*
G01*
X11330000Y7595000D01*
G75*
G02*
X11465000Y7730000I135000J0D01*
G01*
X11835000Y7730000D01*
G75*
G02*
X11970000Y7595000I0J-135000D01*
G01*
X11970000Y7325000D01*
G75*
G02*
X11835000Y7190000I-135000J0D01*
G01*
G37*
G36*
G01*
X11835000Y6170000D02*
X11465000Y6170000D01*
G75*
G02*
X11330000Y6305000I0J135000D01*
G01*
X11330000Y6575000D01*
G75*
G02*
X11465000Y6710000I135000J0D01*
G01*
X11835000Y6710000D01*
G75*
G02*
X11970000Y6575000I0J-135000D01*
G01*
X11970000Y6305000D01*
G75*
G02*
X11835000Y6170000I-135000J0D01*
G01*
G37*
%TD*%
D11*
%TO.C,SW2*%
X14000000Y15125000D03*
X8000000Y15125000D03*
X14000000Y18875000D03*
X8000000Y18875000D03*
%TD*%
%TO.C,SW1*%
X8000000Y4875000D03*
X14000000Y4875000D03*
X8000000Y1125000D03*
X14000000Y1125000D03*
%TD*%
%TO.C,R1*%
G36*
G01*
X18425000Y1625000D02*
X18425000Y1075000D01*
G75*
G02*
X18225000Y875000I-200000J0D01*
G01*
X17825000Y875000D01*
G75*
G02*
X17625000Y1075000I0J200000D01*
G01*
X17625000Y1625000D01*
G75*
G02*
X17825000Y1825000I200000J0D01*
G01*
X18225000Y1825000D01*
G75*
G02*
X18425000Y1625000I0J-200000D01*
G01*
G37*
G36*
G01*
X20075000Y1625000D02*
X20075000Y1075000D01*
G75*
G02*
X19875000Y875000I-200000J0D01*
G01*
X19475000Y875000D01*
G75*
G02*
X19275000Y1075000I0J200000D01*
G01*
X19275000Y1625000D01*
G75*
G02*
X19475000Y1825000I200000J0D01*
G01*
X19875000Y1825000D01*
G75*
G02*
X20075000Y1625000I0J-200000D01*
G01*
G37*
%TD*%
%TO.C,R3*%
G36*
G01*
X21065000Y16360000D02*
X21435000Y16360000D01*
G75*
G02*
X21570000Y16225000I0J-135000D01*
G01*
X21570000Y15955000D01*
G75*
G02*
X21435000Y15820000I-135000J0D01*
G01*
X21065000Y15820000D01*
G75*
G02*
X20930000Y15955000I0J135000D01*
G01*
X20930000Y16225000D01*
G75*
G02*
X21065000Y16360000I135000J0D01*
G01*
G37*
G36*
G01*
X21065000Y17380000D02*
X21435000Y17380000D01*
G75*
G02*
X21570000Y17245000I0J-135000D01*
G01*
X21570000Y16975000D01*
G75*
G02*
X21435000Y16840000I-135000J0D01*
G01*
X21065000Y16840000D01*
G75*
G02*
X20930000Y16975000I0J135000D01*
G01*
X20930000Y17245000D01*
G75*
G02*
X21065000Y17380000I135000J0D01*
G01*
G37*
%TD*%
%TO.C,R2*%
G36*
G01*
X16165000Y17210000D02*
X16535000Y17210000D01*
G75*
G02*
X16670000Y17075000I0J-135000D01*
G01*
X16670000Y16805000D01*
G75*
G02*
X16535000Y16670000I-135000J0D01*
G01*
X16165000Y16670000D01*
G75*
G02*
X16030000Y16805000I0J135000D01*
G01*
X16030000Y17075000D01*
G75*
G02*
X16165000Y17210000I135000J0D01*
G01*
G37*
G36*
G01*
X16165000Y18230000D02*
X16535000Y18230000D01*
G75*
G02*
X16670000Y18095000I0J-135000D01*
G01*
X16670000Y17825000D01*
G75*
G02*
X16535000Y17690000I-135000J0D01*
G01*
X16165000Y17690000D01*
G75*
G02*
X16030000Y17825000I0J135000D01*
G01*
X16030000Y18095000D01*
G75*
G02*
X16165000Y18230000I135000J0D01*
G01*
G37*
%TD*%
D12*
%TO.C,Q1*%
X19200000Y17716500D03*
X19200000Y16783500D03*
D13*
X20125000Y17900000D03*
X20125000Y16600000D03*
X20125000Y17250000D03*
X18275000Y16600000D03*
X18275000Y17250000D03*
X18275000Y17900000D03*
%TD*%
%TO.C,C4*%
G36*
G01*
X17180000Y17250000D02*
X17520000Y17250000D01*
G75*
G02*
X17660000Y17110000I0J-140000D01*
G01*
X17660000Y16830000D01*
G75*
G02*
X17520000Y16690000I-140000J0D01*
G01*
X17180000Y16690000D01*
G75*
G02*
X17040000Y16830000I0J140000D01*
G01*
X17040000Y17110000D01*
G75*
G02*
X17180000Y17250000I140000J0D01*
G01*
G37*
G36*
G01*
X17180000Y18210000D02*
X17520000Y18210000D01*
G75*
G02*
X17660000Y18070000I0J-140000D01*
G01*
X17660000Y17790000D01*
G75*
G02*
X17520000Y17650000I-140000J0D01*
G01*
X17180000Y17650000D01*
G75*
G02*
X17040000Y17790000I0J140000D01*
G01*
X17040000Y18070000D01*
G75*
G02*
X17180000Y18210000I140000J0D01*
G01*
G37*
%TD*%
%TO.C,R7*%
G36*
G01*
X16557000Y15265000D02*
X16557000Y14895000D01*
G75*
G02*
X16422000Y14760000I-135000J0D01*
G01*
X16152000Y14760000D01*
G75*
G02*
X16017000Y14895000I0J135000D01*
G01*
X16017000Y15265000D01*
G75*
G02*
X16152000Y15400000I135000J0D01*
G01*
X16422000Y15400000D01*
G75*
G02*
X16557000Y15265000I0J-135000D01*
G01*
G37*
G36*
G01*
X17577000Y15265000D02*
X17577000Y14895000D01*
G75*
G02*
X17442000Y14760000I-135000J0D01*
G01*
X17172000Y14760000D01*
G75*
G02*
X17037000Y14895000I0J135000D01*
G01*
X17037000Y15265000D01*
G75*
G02*
X17172000Y15400000I135000J0D01*
G01*
X17442000Y15400000D01*
G75*
G02*
X17577000Y15265000I0J-135000D01*
G01*
G37*
%TD*%
%TO.C,R6*%
G36*
G01*
X16557000Y12725000D02*
X16557000Y12355000D01*
G75*
G02*
X16422000Y12220000I-135000J0D01*
G01*
X16152000Y12220000D01*
G75*
G02*
X16017000Y12355000I0J135000D01*
G01*
X16017000Y12725000D01*
G75*
G02*
X16152000Y12860000I135000J0D01*
G01*
X16422000Y12860000D01*
G75*
G02*
X16557000Y12725000I0J-135000D01*
G01*
G37*
G36*
G01*
X17577000Y12725000D02*
X17577000Y12355000D01*
G75*
G02*
X17442000Y12220000I-135000J0D01*
G01*
X17172000Y12220000D01*
G75*
G02*
X17037000Y12355000I0J135000D01*
G01*
X17037000Y12725000D01*
G75*
G02*
X17172000Y12860000I135000J0D01*
G01*
X17442000Y12860000D01*
G75*
G02*
X17577000Y12725000I0J-135000D01*
G01*
G37*
%TD*%
%TO.C,R5*%
G36*
G01*
X16557000Y7645000D02*
X16557000Y7275000D01*
G75*
G02*
X16422000Y7140000I-135000J0D01*
G01*
X16152000Y7140000D01*
G75*
G02*
X16017000Y7275000I0J135000D01*
G01*
X16017000Y7645000D01*
G75*
G02*
X16152000Y7780000I135000J0D01*
G01*
X16422000Y7780000D01*
G75*
G02*
X16557000Y7645000I0J-135000D01*
G01*
G37*
G36*
G01*
X17577000Y7645000D02*
X17577000Y7275000D01*
G75*
G02*
X17442000Y7140000I-135000J0D01*
G01*
X17172000Y7140000D01*
G75*
G02*
X17037000Y7275000I0J135000D01*
G01*
X17037000Y7645000D01*
G75*
G02*
X17172000Y7780000I135000J0D01*
G01*
X17442000Y7780000D01*
G75*
G02*
X17577000Y7645000I0J-135000D01*
G01*
G37*
%TD*%
%TO.C,R4*%
G36*
G01*
X16557000Y10185000D02*
X16557000Y9815000D01*
G75*
G02*
X16422000Y9680000I-135000J0D01*
G01*
X16152000Y9680000D01*
G75*
G02*
X16017000Y9815000I0J135000D01*
G01*
X16017000Y10185000D01*
G75*
G02*
X16152000Y10320000I135000J0D01*
G01*
X16422000Y10320000D01*
G75*
G02*
X16557000Y10185000I0J-135000D01*
G01*
G37*
G36*
G01*
X17577000Y10185000D02*
X17577000Y9815000D01*
G75*
G02*
X17442000Y9680000I-135000J0D01*
G01*
X17172000Y9680000D01*
G75*
G02*
X17037000Y9815000I0J135000D01*
G01*
X17037000Y10185000D01*
G75*
G02*
X17172000Y10320000I135000J0D01*
G01*
X17442000Y10320000D01*
G75*
G02*
X17577000Y10185000I0J-135000D01*
G01*
G37*
%TD*%
%TO.C,D7*%
G36*
G01*
X18860000Y15336250D02*
X18860000Y14823750D01*
G75*
G02*
X18641250Y14605000I-218750J0D01*
G01*
X18203750Y14605000D01*
G75*
G02*
X17985000Y14823750I0J218750D01*
G01*
X17985000Y15336250D01*
G75*
G02*
X18203750Y15555000I218750J0D01*
G01*
X18641250Y15555000D01*
G75*
G02*
X18860000Y15336250I0J-218750D01*
G01*
G37*
G36*
G01*
X20435000Y15336250D02*
X20435000Y14823750D01*
G75*
G02*
X20216250Y14605000I-218750J0D01*
G01*
X19778750Y14605000D01*
G75*
G02*
X19560000Y14823750I0J218750D01*
G01*
X19560000Y15336250D01*
G75*
G02*
X19778750Y15555000I218750J0D01*
G01*
X20216250Y15555000D01*
G75*
G02*
X20435000Y15336250I0J-218750D01*
G01*
G37*
%TD*%
%TO.C,D6*%
G36*
G01*
X18860000Y12796250D02*
X18860000Y12283750D01*
G75*
G02*
X18641250Y12065000I-218750J0D01*
G01*
X18203750Y12065000D01*
G75*
G02*
X17985000Y12283750I0J218750D01*
G01*
X17985000Y12796250D01*
G75*
G02*
X18203750Y13015000I218750J0D01*
G01*
X18641250Y13015000D01*
G75*
G02*
X18860000Y12796250I0J-218750D01*
G01*
G37*
G36*
G01*
X20435000Y12796250D02*
X20435000Y12283750D01*
G75*
G02*
X20216250Y12065000I-218750J0D01*
G01*
X19778750Y12065000D01*
G75*
G02*
X19560000Y12283750I0J218750D01*
G01*
X19560000Y12796250D01*
G75*
G02*
X19778750Y13015000I218750J0D01*
G01*
X20216250Y13015000D01*
G75*
G02*
X20435000Y12796250I0J-218750D01*
G01*
G37*
%TD*%
%TO.C,D5*%
G36*
G01*
X18860000Y7716250D02*
X18860000Y7203750D01*
G75*
G02*
X18641250Y6985000I-218750J0D01*
G01*
X18203750Y6985000D01*
G75*
G02*
X17985000Y7203750I0J218750D01*
G01*
X17985000Y7716250D01*
G75*
G02*
X18203750Y7935000I218750J0D01*
G01*
X18641250Y7935000D01*
G75*
G02*
X18860000Y7716250I0J-218750D01*
G01*
G37*
G36*
G01*
X20435000Y7716250D02*
X20435000Y7203750D01*
G75*
G02*
X20216250Y6985000I-218750J0D01*
G01*
X19778750Y6985000D01*
G75*
G02*
X19560000Y7203750I0J218750D01*
G01*
X19560000Y7716250D01*
G75*
G02*
X19778750Y7935000I218750J0D01*
G01*
X20216250Y7935000D01*
G75*
G02*
X20435000Y7716250I0J-218750D01*
G01*
G37*
%TD*%
%TO.C,D4*%
G36*
G01*
X18860000Y10256250D02*
X18860000Y9743750D01*
G75*
G02*
X18641250Y9525000I-218750J0D01*
G01*
X18203750Y9525000D01*
G75*
G02*
X17985000Y9743750I0J218750D01*
G01*
X17985000Y10256250D01*
G75*
G02*
X18203750Y10475000I218750J0D01*
G01*
X18641250Y10475000D01*
G75*
G02*
X18860000Y10256250I0J-218750D01*
G01*
G37*
G36*
G01*
X20435000Y10256250D02*
X20435000Y9743750D01*
G75*
G02*
X20216250Y9525000I-218750J0D01*
G01*
X19778750Y9525000D01*
G75*
G02*
X19560000Y9743750I0J218750D01*
G01*
X19560000Y10256250D01*
G75*
G02*
X19778750Y10475000I218750J0D01*
G01*
X20216250Y10475000D01*
G75*
G02*
X20435000Y10256250I0J-218750D01*
G01*
G37*
%TD*%
%TO.C,C3*%
G36*
G01*
X16050000Y4775000D02*
X16550000Y4775000D01*
G75*
G02*
X16775000Y4550000I0J-225000D01*
G01*
X16775000Y4100000D01*
G75*
G02*
X16550000Y3875000I-225000J0D01*
G01*
X16050000Y3875000D01*
G75*
G02*
X15825000Y4100000I0J225000D01*
G01*
X15825000Y4550000D01*
G75*
G02*
X16050000Y4775000I225000J0D01*
G01*
G37*
G36*
G01*
X16050000Y6325000D02*
X16550000Y6325000D01*
G75*
G02*
X16775000Y6100000I0J-225000D01*
G01*
X16775000Y5650000D01*
G75*
G02*
X16550000Y5425000I-225000J0D01*
G01*
X16050000Y5425000D01*
G75*
G02*
X15825000Y5650000I0J225000D01*
G01*
X15825000Y6100000D01*
G75*
G02*
X16050000Y6325000I225000J0D01*
G01*
G37*
%TD*%
%TO.C,C2*%
G36*
G01*
X20980000Y4400000D02*
X21320000Y4400000D01*
G75*
G02*
X21460000Y4260000I0J-140000D01*
G01*
X21460000Y3980000D01*
G75*
G02*
X21320000Y3840000I-140000J0D01*
G01*
X20980000Y3840000D01*
G75*
G02*
X20840000Y3980000I0J140000D01*
G01*
X20840000Y4260000D01*
G75*
G02*
X20980000Y4400000I140000J0D01*
G01*
G37*
G36*
G01*
X20980000Y5360000D02*
X21320000Y5360000D01*
G75*
G02*
X21460000Y5220000I0J-140000D01*
G01*
X21460000Y4940000D01*
G75*
G02*
X21320000Y4800000I-140000J0D01*
G01*
X20980000Y4800000D01*
G75*
G02*
X20840000Y4940000I0J140000D01*
G01*
X20840000Y5220000D01*
G75*
G02*
X20980000Y5360000I140000J0D01*
G01*
G37*
%TD*%
%TO.C,C5*%
G36*
G01*
X9070000Y11000000D02*
X8730000Y11000000D01*
G75*
G02*
X8590000Y11140000I0J140000D01*
G01*
X8590000Y11420000D01*
G75*
G02*
X8730000Y11560000I140000J0D01*
G01*
X9070000Y11560000D01*
G75*
G02*
X9210000Y11420000I0J-140000D01*
G01*
X9210000Y11140000D01*
G75*
G02*
X9070000Y11000000I-140000J0D01*
G01*
G37*
G36*
G01*
X9070000Y10040000D02*
X8730000Y10040000D01*
G75*
G02*
X8590000Y10180000I0J140000D01*
G01*
X8590000Y10460000D01*
G75*
G02*
X8730000Y10600000I140000J0D01*
G01*
X9070000Y10600000D01*
G75*
G02*
X9210000Y10460000I0J-140000D01*
G01*
X9210000Y10180000D01*
G75*
G02*
X9070000Y10040000I-140000J0D01*
G01*
G37*
%TD*%
%TO.C,C7*%
G36*
G01*
X12670000Y13250000D02*
X12330000Y13250000D01*
G75*
G02*
X12190000Y13390000I0J140000D01*
G01*
X12190000Y13670000D01*
G75*
G02*
X12330000Y13810000I140000J0D01*
G01*
X12670000Y13810000D01*
G75*
G02*
X12810000Y13670000I0J-140000D01*
G01*
X12810000Y13390000D01*
G75*
G02*
X12670000Y13250000I-140000J0D01*
G01*
G37*
G36*
G01*
X12670000Y12290000D02*
X12330000Y12290000D01*
G75*
G02*
X12190000Y12430000I0J140000D01*
G01*
X12190000Y12710000D01*
G75*
G02*
X12330000Y12850000I140000J0D01*
G01*
X12670000Y12850000D01*
G75*
G02*
X12810000Y12710000I0J-140000D01*
G01*
X12810000Y12430000D01*
G75*
G02*
X12670000Y12290000I-140000J0D01*
G01*
G37*
%TD*%
%TO.C,C6*%
G36*
G01*
X11170000Y13250000D02*
X10830000Y13250000D01*
G75*
G02*
X10690000Y13390000I0J140000D01*
G01*
X10690000Y13670000D01*
G75*
G02*
X10830000Y13810000I140000J0D01*
G01*
X11170000Y13810000D01*
G75*
G02*
X11310000Y13670000I0J-140000D01*
G01*
X11310000Y13390000D01*
G75*
G02*
X11170000Y13250000I-140000J0D01*
G01*
G37*
G36*
G01*
X11170000Y12290000D02*
X10830000Y12290000D01*
G75*
G02*
X10690000Y12430000I0J140000D01*
G01*
X10690000Y12710000D01*
G75*
G02*
X10830000Y12850000I140000J0D01*
G01*
X11170000Y12850000D01*
G75*
G02*
X11310000Y12710000I0J-140000D01*
G01*
X11310000Y12430000D01*
G75*
G02*
X11170000Y12290000I-140000J0D01*
G01*
G37*
%TD*%
%TO.C,C1*%
G36*
G01*
X16050000Y1775000D02*
X16550000Y1775000D01*
G75*
G02*
X16775000Y1550000I0J-225000D01*
G01*
X16775000Y1100000D01*
G75*
G02*
X16550000Y875000I-225000J0D01*
G01*
X16050000Y875000D01*
G75*
G02*
X15825000Y1100000I0J225000D01*
G01*
X15825000Y1550000D01*
G75*
G02*
X16050000Y1775000I225000J0D01*
G01*
G37*
G36*
G01*
X16050000Y3325000D02*
X16550000Y3325000D01*
G75*
G02*
X16775000Y3100000I0J-225000D01*
G01*
X16775000Y2650000D01*
G75*
G02*
X16550000Y2425000I-225000J0D01*
G01*
X16050000Y2425000D01*
G75*
G02*
X15825000Y2650000I0J225000D01*
G01*
X15825000Y3100000D01*
G75*
G02*
X16050000Y3325000I225000J0D01*
G01*
G37*
%TD*%
%TO.C,U2*%
G36*
G01*
X10882500Y9915000D02*
X11237500Y9915000D01*
G75*
G02*
X11415000Y9737500I0J-177500D01*
G01*
X11415000Y9382500D01*
G75*
G02*
X11237500Y9205000I-177500J0D01*
G01*
X10882500Y9205000D01*
G75*
G02*
X10705000Y9382500I0J177500D01*
G01*
X10705000Y9737500D01*
G75*
G02*
X10882500Y9915000I177500J0D01*
G01*
G37*
G36*
G01*
X11762500Y9915000D02*
X12117500Y9915000D01*
G75*
G02*
X12295000Y9737500I0J-177500D01*
G01*
X12295000Y9382500D01*
G75*
G02*
X12117500Y9205000I-177500J0D01*
G01*
X11762500Y9205000D01*
G75*
G02*
X11585000Y9382500I0J177500D01*
G01*
X11585000Y9737500D01*
G75*
G02*
X11762500Y9915000I177500J0D01*
G01*
G37*
G36*
G01*
X10882500Y10795000D02*
X11237500Y10795000D01*
G75*
G02*
X11415000Y10617500I0J-177500D01*
G01*
X11415000Y10262500D01*
G75*
G02*
X11237500Y10085000I-177500J0D01*
G01*
X10882500Y10085000D01*
G75*
G02*
X10705000Y10262500I0J177500D01*
G01*
X10705000Y10617500D01*
G75*
G02*
X10882500Y10795000I177500J0D01*
G01*
G37*
G36*
G01*
X11762500Y10795000D02*
X12117500Y10795000D01*
G75*
G02*
X12295000Y10617500I0J-177500D01*
G01*
X12295000Y10262500D01*
G75*
G02*
X12117500Y10085000I-177500J0D01*
G01*
X11762500Y10085000D01*
G75*
G02*
X11585000Y10262500I0J177500D01*
G01*
X11585000Y10617500D01*
G75*
G02*
X11762500Y10795000I177500J0D01*
G01*
G37*
G36*
G01*
X12662500Y10875000D02*
X13287500Y10875000D01*
G75*
G02*
X13350000Y10812500I0J-62500D01*
G01*
X13350000Y10687500D01*
G75*
G02*
X13287500Y10625000I-62500J0D01*
G01*
X12662500Y10625000D01*
G75*
G02*
X12600000Y10687500I0J62500D01*
G01*
X12600000Y10812500D01*
G75*
G02*
X12662500Y10875000I62500J0D01*
G01*
G37*
G36*
G01*
X12662500Y10375000D02*
X13287500Y10375000D01*
G75*
G02*
X13350000Y10312500I0J-62500D01*
G01*
X13350000Y10187500D01*
G75*
G02*
X13287500Y10125000I-62500J0D01*
G01*
X12662500Y10125000D01*
G75*
G02*
X12600000Y10187500I0J62500D01*
G01*
X12600000Y10312500D01*
G75*
G02*
X12662500Y10375000I62500J0D01*
G01*
G37*
G36*
G01*
X12662500Y9875000D02*
X13287500Y9875000D01*
G75*
G02*
X13350000Y9812500I0J-62500D01*
G01*
X13350000Y9687500D01*
G75*
G02*
X13287500Y9625000I-62500J0D01*
G01*
X12662500Y9625000D01*
G75*
G02*
X12600000Y9687500I0J62500D01*
G01*
X12600000Y9812500D01*
G75*
G02*
X12662500Y9875000I62500J0D01*
G01*
G37*
G36*
G01*
X12662500Y9375000D02*
X13287500Y9375000D01*
G75*
G02*
X13350000Y9312500I0J-62500D01*
G01*
X13350000Y9187500D01*
G75*
G02*
X13287500Y9125000I-62500J0D01*
G01*
X12662500Y9125000D01*
G75*
G02*
X12600000Y9187500I0J62500D01*
G01*
X12600000Y9312500D01*
G75*
G02*
X12662500Y9375000I62500J0D01*
G01*
G37*
G36*
G01*
X12187500Y8900000D02*
X12312500Y8900000D01*
G75*
G02*
X12375000Y8837500I0J-62500D01*
G01*
X12375000Y8212500D01*
G75*
G02*
X12312500Y8150000I-62500J0D01*
G01*
X12187500Y8150000D01*
G75*
G02*
X12125000Y8212500I0J62500D01*
G01*
X12125000Y8837500D01*
G75*
G02*
X12187500Y8900000I62500J0D01*
G01*
G37*
G36*
G01*
X11687500Y8900000D02*
X11812500Y8900000D01*
G75*
G02*
X11875000Y8837500I0J-62500D01*
G01*
X11875000Y8212500D01*
G75*
G02*
X11812500Y8150000I-62500J0D01*
G01*
X11687500Y8150000D01*
G75*
G02*
X11625000Y8212500I0J62500D01*
G01*
X11625000Y8837500D01*
G75*
G02*
X11687500Y8900000I62500J0D01*
G01*
G37*
G36*
G01*
X11187500Y8900000D02*
X11312500Y8900000D01*
G75*
G02*
X11375000Y8837500I0J-62500D01*
G01*
X11375000Y8212500D01*
G75*
G02*
X11312500Y8150000I-62500J0D01*
G01*
X11187500Y8150000D01*
G75*
G02*
X11125000Y8212500I0J62500D01*
G01*
X11125000Y8837500D01*
G75*
G02*
X11187500Y8900000I62500J0D01*
G01*
G37*
G36*
G01*
X10687500Y8900000D02*
X10812500Y8900000D01*
G75*
G02*
X10875000Y8837500I0J-62500D01*
G01*
X10875000Y8212500D01*
G75*
G02*
X10812500Y8150000I-62500J0D01*
G01*
X10687500Y8150000D01*
G75*
G02*
X10625000Y8212500I0J62500D01*
G01*
X10625000Y8837500D01*
G75*
G02*
X10687500Y8900000I62500J0D01*
G01*
G37*
G36*
G01*
X9712500Y9375000D02*
X10337500Y9375000D01*
G75*
G02*
X10400000Y9312500I0J-62500D01*
G01*
X10400000Y9187500D01*
G75*
G02*
X10337500Y9125000I-62500J0D01*
G01*
X9712500Y9125000D01*
G75*
G02*
X9650000Y9187500I0J62500D01*
G01*
X9650000Y9312500D01*
G75*
G02*
X9712500Y9375000I62500J0D01*
G01*
G37*
G36*
G01*
X9712500Y9875000D02*
X10337500Y9875000D01*
G75*
G02*
X10400000Y9812500I0J-62500D01*
G01*
X10400000Y9687500D01*
G75*
G02*
X10337500Y9625000I-62500J0D01*
G01*
X9712500Y9625000D01*
G75*
G02*
X9650000Y9687500I0J62500D01*
G01*
X9650000Y9812500D01*
G75*
G02*
X9712500Y9875000I62500J0D01*
G01*
G37*
G36*
G01*
X9712500Y10375000D02*
X10337500Y10375000D01*
G75*
G02*
X10400000Y10312500I0J-62500D01*
G01*
X10400000Y10187500D01*
G75*
G02*
X10337500Y10125000I-62500J0D01*
G01*
X9712500Y10125000D01*
G75*
G02*
X9650000Y10187500I0J62500D01*
G01*
X9650000Y10312500D01*
G75*
G02*
X9712500Y10375000I62500J0D01*
G01*
G37*
G36*
G01*
X9712500Y10875000D02*
X10337500Y10875000D01*
G75*
G02*
X10400000Y10812500I0J-62500D01*
G01*
X10400000Y10687500D01*
G75*
G02*
X10337500Y10625000I-62500J0D01*
G01*
X9712500Y10625000D01*
G75*
G02*
X9650000Y10687500I0J62500D01*
G01*
X9650000Y10812500D01*
G75*
G02*
X9712500Y10875000I62500J0D01*
G01*
G37*
G36*
G01*
X10687500Y11850000D02*
X10812500Y11850000D01*
G75*
G02*
X10875000Y11787500I0J-62500D01*
G01*
X10875000Y11162500D01*
G75*
G02*
X10812500Y11100000I-62500J0D01*
G01*
X10687500Y11100000D01*
G75*
G02*
X10625000Y11162500I0J62500D01*
G01*
X10625000Y11787500D01*
G75*
G02*
X10687500Y11850000I62500J0D01*
G01*
G37*
G36*
G01*
X11187500Y11850000D02*
X11312500Y11850000D01*
G75*
G02*
X11375000Y11787500I0J-62500D01*
G01*
X11375000Y11162500D01*
G75*
G02*
X11312500Y11100000I-62500J0D01*
G01*
X11187500Y11100000D01*
G75*
G02*
X11125000Y11162500I0J62500D01*
G01*
X11125000Y11787500D01*
G75*
G02*
X11187500Y11850000I62500J0D01*
G01*
G37*
G36*
G01*
X11687500Y11850000D02*
X11812500Y11850000D01*
G75*
G02*
X11875000Y11787500I0J-62500D01*
G01*
X11875000Y11162500D01*
G75*
G02*
X11812500Y11100000I-62500J0D01*
G01*
X11687500Y11100000D01*
G75*
G02*
X11625000Y11162500I0J62500D01*
G01*
X11625000Y11787500D01*
G75*
G02*
X11687500Y11850000I62500J0D01*
G01*
G37*
G36*
G01*
X12187500Y11850000D02*
X12312500Y11850000D01*
G75*
G02*
X12375000Y11787500I0J-62500D01*
G01*
X12375000Y11162500D01*
G75*
G02*
X12312500Y11100000I-62500J0D01*
G01*
X12187500Y11100000D01*
G75*
G02*
X12125000Y11162500I0J62500D01*
G01*
X12125000Y11787500D01*
G75*
G02*
X12187500Y11850000I62500J0D01*
G01*
G37*
%TD*%
D14*
%TO.C,U1*%
X17900000Y5100000D03*
X19800000Y5100000D03*
X19800000Y2900000D03*
X18850000Y2900000D03*
X17900000Y2900000D03*
%TD*%
D15*
%TO.C,J1*%
X5350000Y6500000D03*
X5350000Y9000000D03*
X5350000Y11000000D03*
X5350000Y13500000D03*
%TD*%
D16*
%TO.C,D3*%
X7500000Y7320000D03*
X7500000Y6480000D03*
%TD*%
%TO.C,D2*%
X7500000Y11270000D03*
X7500000Y10430000D03*
%TD*%
%TO.C,D1*%
X7500000Y8730000D03*
X7500000Y9570000D03*
%TD*%
M02*
