%TF.GenerationSoftware,KiCad,Pcbnew,(5.1.12-1-10_14)*%
%TF.CreationDate,2022-05-25T15:41:46+08:00*%
%TF.ProjectId,USB2TTL,55534232-5454-44c2-9e6b-696361645f70,V1.0*%
%TF.SameCoordinates,Original*%
%TF.FileFunction,Soldermask,Top*%
%TF.FilePolarity,Negative*%
%FSLAX46Y46*%
G04 Gerber Fmt 4.6, Leading zero omitted, Abs format (unit mm)*
G04 Created by KiCad (PCBNEW (5.1.12-1-10_14)) date 2022-05-25 15:41:46*
%MOMM*%
%LPD*%
G01*
G04 APERTURE LIST*
%ADD10C,1.200000*%
%ADD11O,3.300000X1.400000*%
G04 APERTURE END LIST*
%TO.C,J2*%
G36*
G01*
X23910000Y4070000D02*
X23910000Y5770000D01*
G75*
G02*
X23960000Y5820000I50000J0D01*
G01*
X26960000Y5820000D01*
G75*
G02*
X27010000Y5770000I0J-50000D01*
G01*
X27010000Y4070000D01*
G75*
G02*
X26960000Y4020000I-50000J0D01*
G01*
X23960000Y4020000D01*
G75*
G02*
X23910000Y4070000I0J50000D01*
G01*
G37*
G36*
G01*
X23910000Y6610000D02*
X23910000Y8310000D01*
G75*
G02*
X23960000Y8360000I50000J0D01*
G01*
X26960000Y8360000D01*
G75*
G02*
X27010000Y8310000I0J-50000D01*
G01*
X27010000Y6610000D01*
G75*
G02*
X26960000Y6560000I-50000J0D01*
G01*
X23960000Y6560000D01*
G75*
G02*
X23910000Y6610000I0J50000D01*
G01*
G37*
G36*
G01*
X23910000Y9150000D02*
X23910000Y10850000D01*
G75*
G02*
X23960000Y10900000I50000J0D01*
G01*
X26960000Y10900000D01*
G75*
G02*
X27010000Y10850000I0J-50000D01*
G01*
X27010000Y9150000D01*
G75*
G02*
X26960000Y9100000I-50000J0D01*
G01*
X23960000Y9100000D01*
G75*
G02*
X23910000Y9150000I0J50000D01*
G01*
G37*
G36*
G01*
X23910000Y11690000D02*
X23910000Y13390000D01*
G75*
G02*
X23960000Y13440000I50000J0D01*
G01*
X26960000Y13440000D01*
G75*
G02*
X27010000Y13390000I0J-50000D01*
G01*
X27010000Y11690000D01*
G75*
G02*
X26960000Y11640000I-50000J0D01*
G01*
X23960000Y11640000D01*
G75*
G02*
X23910000Y11690000I0J50000D01*
G01*
G37*
G36*
G01*
X23910000Y14230000D02*
X23910000Y15930000D01*
G75*
G02*
X23960000Y15980000I50000J0D01*
G01*
X26960000Y15980000D01*
G75*
G02*
X27010000Y15930000I0J-50000D01*
G01*
X27010000Y14230000D01*
G75*
G02*
X26960000Y14180000I-50000J0D01*
G01*
X23960000Y14180000D01*
G75*
G02*
X23910000Y14230000I0J50000D01*
G01*
G37*
%TD*%
%TO.C,R9*%
G36*
G01*
X12810000Y7140000D02*
X12390000Y7140000D01*
G75*
G02*
X12230000Y7300000I0J160000D01*
G01*
X12230000Y7620000D01*
G75*
G02*
X12390000Y7780000I160000J0D01*
G01*
X12810000Y7780000D01*
G75*
G02*
X12970000Y7620000I0J-160000D01*
G01*
X12970000Y7300000D01*
G75*
G02*
X12810000Y7140000I-160000J0D01*
G01*
G37*
G36*
G01*
X12810000Y6120000D02*
X12390000Y6120000D01*
G75*
G02*
X12230000Y6280000I0J160000D01*
G01*
X12230000Y6600000D01*
G75*
G02*
X12390000Y6760000I160000J0D01*
G01*
X12810000Y6760000D01*
G75*
G02*
X12970000Y6600000I0J-160000D01*
G01*
X12970000Y6280000D01*
G75*
G02*
X12810000Y6120000I-160000J0D01*
G01*
G37*
%TD*%
%TO.C,R8*%
G36*
G01*
X11860000Y7140000D02*
X11440000Y7140000D01*
G75*
G02*
X11280000Y7300000I0J160000D01*
G01*
X11280000Y7620000D01*
G75*
G02*
X11440000Y7780000I160000J0D01*
G01*
X11860000Y7780000D01*
G75*
G02*
X12020000Y7620000I0J-160000D01*
G01*
X12020000Y7300000D01*
G75*
G02*
X11860000Y7140000I-160000J0D01*
G01*
G37*
G36*
G01*
X11860000Y6120000D02*
X11440000Y6120000D01*
G75*
G02*
X11280000Y6280000I0J160000D01*
G01*
X11280000Y6600000D01*
G75*
G02*
X11440000Y6760000I160000J0D01*
G01*
X11860000Y6760000D01*
G75*
G02*
X12020000Y6600000I0J-160000D01*
G01*
X12020000Y6280000D01*
G75*
G02*
X11860000Y6120000I-160000J0D01*
G01*
G37*
%TD*%
%TO.C,SW2*%
G36*
G01*
X14550000Y15500000D02*
X14550000Y14750000D01*
G75*
G02*
X14500000Y14700000I-50000J0D01*
G01*
X13500000Y14700000D01*
G75*
G02*
X13450000Y14750000I0J50000D01*
G01*
X13450000Y15500000D01*
G75*
G02*
X13500000Y15550000I50000J0D01*
G01*
X14500000Y15550000D01*
G75*
G02*
X14550000Y15500000I0J-50000D01*
G01*
G37*
G36*
G01*
X8550000Y15500000D02*
X8550000Y14750000D01*
G75*
G02*
X8500000Y14700000I-50000J0D01*
G01*
X7500000Y14700000D01*
G75*
G02*
X7450000Y14750000I0J50000D01*
G01*
X7450000Y15500000D01*
G75*
G02*
X7500000Y15550000I50000J0D01*
G01*
X8500000Y15550000D01*
G75*
G02*
X8550000Y15500000I0J-50000D01*
G01*
G37*
G36*
G01*
X14550000Y19250000D02*
X14550000Y18500000D01*
G75*
G02*
X14500000Y18450000I-50000J0D01*
G01*
X13500000Y18450000D01*
G75*
G02*
X13450000Y18500000I0J50000D01*
G01*
X13450000Y19250000D01*
G75*
G02*
X13500000Y19300000I50000J0D01*
G01*
X14500000Y19300000D01*
G75*
G02*
X14550000Y19250000I0J-50000D01*
G01*
G37*
G36*
G01*
X8550000Y19250000D02*
X8550000Y18500000D01*
G75*
G02*
X8500000Y18450000I-50000J0D01*
G01*
X7500000Y18450000D01*
G75*
G02*
X7450000Y18500000I0J50000D01*
G01*
X7450000Y19250000D01*
G75*
G02*
X7500000Y19300000I50000J0D01*
G01*
X8500000Y19300000D01*
G75*
G02*
X8550000Y19250000I0J-50000D01*
G01*
G37*
%TD*%
%TO.C,SW1*%
G36*
G01*
X7450000Y4500000D02*
X7450000Y5250000D01*
G75*
G02*
X7500000Y5300000I50000J0D01*
G01*
X8500000Y5300000D01*
G75*
G02*
X8550000Y5250000I0J-50000D01*
G01*
X8550000Y4500000D01*
G75*
G02*
X8500000Y4450000I-50000J0D01*
G01*
X7500000Y4450000D01*
G75*
G02*
X7450000Y4500000I0J50000D01*
G01*
G37*
G36*
G01*
X13450000Y4500000D02*
X13450000Y5250000D01*
G75*
G02*
X13500000Y5300000I50000J0D01*
G01*
X14500000Y5300000D01*
G75*
G02*
X14550000Y5250000I0J-50000D01*
G01*
X14550000Y4500000D01*
G75*
G02*
X14500000Y4450000I-50000J0D01*
G01*
X13500000Y4450000D01*
G75*
G02*
X13450000Y4500000I0J50000D01*
G01*
G37*
G36*
G01*
X7450000Y750000D02*
X7450000Y1500000D01*
G75*
G02*
X7500000Y1550000I50000J0D01*
G01*
X8500000Y1550000D01*
G75*
G02*
X8550000Y1500000I0J-50000D01*
G01*
X8550000Y750000D01*
G75*
G02*
X8500000Y700000I-50000J0D01*
G01*
X7500000Y700000D01*
G75*
G02*
X7450000Y750000I0J50000D01*
G01*
G37*
G36*
G01*
X13450000Y750000D02*
X13450000Y1500000D01*
G75*
G02*
X13500000Y1550000I50000J0D01*
G01*
X14500000Y1550000D01*
G75*
G02*
X14550000Y1500000I0J-50000D01*
G01*
X14550000Y750000D01*
G75*
G02*
X14500000Y700000I-50000J0D01*
G01*
X13500000Y700000D01*
G75*
G02*
X13450000Y750000I0J50000D01*
G01*
G37*
%TD*%
%TO.C,R1*%
G36*
G01*
X18475000Y1650000D02*
X18475000Y1050000D01*
G75*
G02*
X18250000Y825000I-225000J0D01*
G01*
X17800000Y825000D01*
G75*
G02*
X17575000Y1050000I0J225000D01*
G01*
X17575000Y1650000D01*
G75*
G02*
X17800000Y1875000I225000J0D01*
G01*
X18250000Y1875000D01*
G75*
G02*
X18475000Y1650000I0J-225000D01*
G01*
G37*
G36*
G01*
X20125000Y1650000D02*
X20125000Y1050000D01*
G75*
G02*
X19900000Y825000I-225000J0D01*
G01*
X19450000Y825000D01*
G75*
G02*
X19225000Y1050000I0J225000D01*
G01*
X19225000Y1650000D01*
G75*
G02*
X19450000Y1875000I225000J0D01*
G01*
X19900000Y1875000D01*
G75*
G02*
X20125000Y1650000I0J-225000D01*
G01*
G37*
%TD*%
%TO.C,R3*%
G36*
G01*
X21040000Y16410000D02*
X21460000Y16410000D01*
G75*
G02*
X21620000Y16250000I0J-160000D01*
G01*
X21620000Y15930000D01*
G75*
G02*
X21460000Y15770000I-160000J0D01*
G01*
X21040000Y15770000D01*
G75*
G02*
X20880000Y15930000I0J160000D01*
G01*
X20880000Y16250000D01*
G75*
G02*
X21040000Y16410000I160000J0D01*
G01*
G37*
G36*
G01*
X21040000Y17430000D02*
X21460000Y17430000D01*
G75*
G02*
X21620000Y17270000I0J-160000D01*
G01*
X21620000Y16950000D01*
G75*
G02*
X21460000Y16790000I-160000J0D01*
G01*
X21040000Y16790000D01*
G75*
G02*
X20880000Y16950000I0J160000D01*
G01*
X20880000Y17270000D01*
G75*
G02*
X21040000Y17430000I160000J0D01*
G01*
G37*
%TD*%
%TO.C,R2*%
G36*
G01*
X16140000Y17260000D02*
X16560000Y17260000D01*
G75*
G02*
X16720000Y17100000I0J-160000D01*
G01*
X16720000Y16780000D01*
G75*
G02*
X16560000Y16620000I-160000J0D01*
G01*
X16140000Y16620000D01*
G75*
G02*
X15980000Y16780000I0J160000D01*
G01*
X15980000Y17100000D01*
G75*
G02*
X16140000Y17260000I160000J0D01*
G01*
G37*
G36*
G01*
X16140000Y18280000D02*
X16560000Y18280000D01*
G75*
G02*
X16720000Y18120000I0J-160000D01*
G01*
X16720000Y17800000D01*
G75*
G02*
X16560000Y17640000I-160000J0D01*
G01*
X16140000Y17640000D01*
G75*
G02*
X15980000Y17800000I0J160000D01*
G01*
X15980000Y18120000D01*
G75*
G02*
X16140000Y18280000I160000J0D01*
G01*
G37*
%TD*%
%TO.C,Q1*%
G36*
G01*
X18675000Y17410000D02*
X18675000Y18023000D01*
G75*
G02*
X18725000Y18073000I50000J0D01*
G01*
X19675000Y18073000D01*
G75*
G02*
X19725000Y18023000I0J-50000D01*
G01*
X19725000Y17410000D01*
G75*
G02*
X19675000Y17360000I-50000J0D01*
G01*
X18725000Y17360000D01*
G75*
G02*
X18675000Y17410000I0J50000D01*
G01*
G37*
G36*
G01*
X18675000Y16477000D02*
X18675000Y17090000D01*
G75*
G02*
X18725000Y17140000I50000J0D01*
G01*
X19675000Y17140000D01*
G75*
G02*
X19725000Y17090000I0J-50000D01*
G01*
X19725000Y16477000D01*
G75*
G02*
X19675000Y16427000I-50000J0D01*
G01*
X18725000Y16427000D01*
G75*
G02*
X18675000Y16477000I0J50000D01*
G01*
G37*
G36*
G01*
X19912500Y17750000D02*
X19912500Y18050000D01*
G75*
G02*
X19962500Y18100000I50000J0D01*
G01*
X20287500Y18100000D01*
G75*
G02*
X20337500Y18050000I0J-50000D01*
G01*
X20337500Y17750000D01*
G75*
G02*
X20287500Y17700000I-50000J0D01*
G01*
X19962500Y17700000D01*
G75*
G02*
X19912500Y17750000I0J50000D01*
G01*
G37*
G36*
G01*
X19912500Y16450000D02*
X19912500Y16750000D01*
G75*
G02*
X19962500Y16800000I50000J0D01*
G01*
X20287500Y16800000D01*
G75*
G02*
X20337500Y16750000I0J-50000D01*
G01*
X20337500Y16450000D01*
G75*
G02*
X20287500Y16400000I-50000J0D01*
G01*
X19962500Y16400000D01*
G75*
G02*
X19912500Y16450000I0J50000D01*
G01*
G37*
G36*
G01*
X19912500Y17100000D02*
X19912500Y17400000D01*
G75*
G02*
X19962500Y17450000I50000J0D01*
G01*
X20287500Y17450000D01*
G75*
G02*
X20337500Y17400000I0J-50000D01*
G01*
X20337500Y17100000D01*
G75*
G02*
X20287500Y17050000I-50000J0D01*
G01*
X19962500Y17050000D01*
G75*
G02*
X19912500Y17100000I0J50000D01*
G01*
G37*
G36*
G01*
X18062500Y16450000D02*
X18062500Y16750000D01*
G75*
G02*
X18112500Y16800000I50000J0D01*
G01*
X18437500Y16800000D01*
G75*
G02*
X18487500Y16750000I0J-50000D01*
G01*
X18487500Y16450000D01*
G75*
G02*
X18437500Y16400000I-50000J0D01*
G01*
X18112500Y16400000D01*
G75*
G02*
X18062500Y16450000I0J50000D01*
G01*
G37*
G36*
G01*
X18062500Y17100000D02*
X18062500Y17400000D01*
G75*
G02*
X18112500Y17450000I50000J0D01*
G01*
X18437500Y17450000D01*
G75*
G02*
X18487500Y17400000I0J-50000D01*
G01*
X18487500Y17100000D01*
G75*
G02*
X18437500Y17050000I-50000J0D01*
G01*
X18112500Y17050000D01*
G75*
G02*
X18062500Y17100000I0J50000D01*
G01*
G37*
G36*
G01*
X18062500Y17750000D02*
X18062500Y18050000D01*
G75*
G02*
X18112500Y18100000I50000J0D01*
G01*
X18437500Y18100000D01*
G75*
G02*
X18487500Y18050000I0J-50000D01*
G01*
X18487500Y17750000D01*
G75*
G02*
X18437500Y17700000I-50000J0D01*
G01*
X18112500Y17700000D01*
G75*
G02*
X18062500Y17750000I0J50000D01*
G01*
G37*
%TD*%
%TO.C,C4*%
G36*
G01*
X17155000Y17300000D02*
X17545000Y17300000D01*
G75*
G02*
X17710000Y17135000I0J-165000D01*
G01*
X17710000Y16805000D01*
G75*
G02*
X17545000Y16640000I-165000J0D01*
G01*
X17155000Y16640000D01*
G75*
G02*
X16990000Y16805000I0J165000D01*
G01*
X16990000Y17135000D01*
G75*
G02*
X17155000Y17300000I165000J0D01*
G01*
G37*
G36*
G01*
X17155000Y18260000D02*
X17545000Y18260000D01*
G75*
G02*
X17710000Y18095000I0J-165000D01*
G01*
X17710000Y17765000D01*
G75*
G02*
X17545000Y17600000I-165000J0D01*
G01*
X17155000Y17600000D01*
G75*
G02*
X16990000Y17765000I0J165000D01*
G01*
X16990000Y18095000D01*
G75*
G02*
X17155000Y18260000I165000J0D01*
G01*
G37*
%TD*%
%TO.C,R7*%
G36*
G01*
X16607000Y15290000D02*
X16607000Y14870000D01*
G75*
G02*
X16447000Y14710000I-160000J0D01*
G01*
X16127000Y14710000D01*
G75*
G02*
X15967000Y14870000I0J160000D01*
G01*
X15967000Y15290000D01*
G75*
G02*
X16127000Y15450000I160000J0D01*
G01*
X16447000Y15450000D01*
G75*
G02*
X16607000Y15290000I0J-160000D01*
G01*
G37*
G36*
G01*
X17627000Y15290000D02*
X17627000Y14870000D01*
G75*
G02*
X17467000Y14710000I-160000J0D01*
G01*
X17147000Y14710000D01*
G75*
G02*
X16987000Y14870000I0J160000D01*
G01*
X16987000Y15290000D01*
G75*
G02*
X17147000Y15450000I160000J0D01*
G01*
X17467000Y15450000D01*
G75*
G02*
X17627000Y15290000I0J-160000D01*
G01*
G37*
%TD*%
%TO.C,R6*%
G36*
G01*
X16607000Y12750000D02*
X16607000Y12330000D01*
G75*
G02*
X16447000Y12170000I-160000J0D01*
G01*
X16127000Y12170000D01*
G75*
G02*
X15967000Y12330000I0J160000D01*
G01*
X15967000Y12750000D01*
G75*
G02*
X16127000Y12910000I160000J0D01*
G01*
X16447000Y12910000D01*
G75*
G02*
X16607000Y12750000I0J-160000D01*
G01*
G37*
G36*
G01*
X17627000Y12750000D02*
X17627000Y12330000D01*
G75*
G02*
X17467000Y12170000I-160000J0D01*
G01*
X17147000Y12170000D01*
G75*
G02*
X16987000Y12330000I0J160000D01*
G01*
X16987000Y12750000D01*
G75*
G02*
X17147000Y12910000I160000J0D01*
G01*
X17467000Y12910000D01*
G75*
G02*
X17627000Y12750000I0J-160000D01*
G01*
G37*
%TD*%
%TO.C,R5*%
G36*
G01*
X16607000Y7670000D02*
X16607000Y7250000D01*
G75*
G02*
X16447000Y7090000I-160000J0D01*
G01*
X16127000Y7090000D01*
G75*
G02*
X15967000Y7250000I0J160000D01*
G01*
X15967000Y7670000D01*
G75*
G02*
X16127000Y7830000I160000J0D01*
G01*
X16447000Y7830000D01*
G75*
G02*
X16607000Y7670000I0J-160000D01*
G01*
G37*
G36*
G01*
X17627000Y7670000D02*
X17627000Y7250000D01*
G75*
G02*
X17467000Y7090000I-160000J0D01*
G01*
X17147000Y7090000D01*
G75*
G02*
X16987000Y7250000I0J160000D01*
G01*
X16987000Y7670000D01*
G75*
G02*
X17147000Y7830000I160000J0D01*
G01*
X17467000Y7830000D01*
G75*
G02*
X17627000Y7670000I0J-160000D01*
G01*
G37*
%TD*%
%TO.C,R4*%
G36*
G01*
X16607000Y10210000D02*
X16607000Y9790000D01*
G75*
G02*
X16447000Y9630000I-160000J0D01*
G01*
X16127000Y9630000D01*
G75*
G02*
X15967000Y9790000I0J160000D01*
G01*
X15967000Y10210000D01*
G75*
G02*
X16127000Y10370000I160000J0D01*
G01*
X16447000Y10370000D01*
G75*
G02*
X16607000Y10210000I0J-160000D01*
G01*
G37*
G36*
G01*
X17627000Y10210000D02*
X17627000Y9790000D01*
G75*
G02*
X17467000Y9630000I-160000J0D01*
G01*
X17147000Y9630000D01*
G75*
G02*
X16987000Y9790000I0J160000D01*
G01*
X16987000Y10210000D01*
G75*
G02*
X17147000Y10370000I160000J0D01*
G01*
X17467000Y10370000D01*
G75*
G02*
X17627000Y10210000I0J-160000D01*
G01*
G37*
%TD*%
%TO.C,D7*%
G36*
G01*
X18910000Y15361250D02*
X18910000Y14798750D01*
G75*
G02*
X18666250Y14555000I-243750J0D01*
G01*
X18178750Y14555000D01*
G75*
G02*
X17935000Y14798750I0J243750D01*
G01*
X17935000Y15361250D01*
G75*
G02*
X18178750Y15605000I243750J0D01*
G01*
X18666250Y15605000D01*
G75*
G02*
X18910000Y15361250I0J-243750D01*
G01*
G37*
G36*
G01*
X20485000Y15361250D02*
X20485000Y14798750D01*
G75*
G02*
X20241250Y14555000I-243750J0D01*
G01*
X19753750Y14555000D01*
G75*
G02*
X19510000Y14798750I0J243750D01*
G01*
X19510000Y15361250D01*
G75*
G02*
X19753750Y15605000I243750J0D01*
G01*
X20241250Y15605000D01*
G75*
G02*
X20485000Y15361250I0J-243750D01*
G01*
G37*
%TD*%
%TO.C,D6*%
G36*
G01*
X18910000Y12821250D02*
X18910000Y12258750D01*
G75*
G02*
X18666250Y12015000I-243750J0D01*
G01*
X18178750Y12015000D01*
G75*
G02*
X17935000Y12258750I0J243750D01*
G01*
X17935000Y12821250D01*
G75*
G02*
X18178750Y13065000I243750J0D01*
G01*
X18666250Y13065000D01*
G75*
G02*
X18910000Y12821250I0J-243750D01*
G01*
G37*
G36*
G01*
X20485000Y12821250D02*
X20485000Y12258750D01*
G75*
G02*
X20241250Y12015000I-243750J0D01*
G01*
X19753750Y12015000D01*
G75*
G02*
X19510000Y12258750I0J243750D01*
G01*
X19510000Y12821250D01*
G75*
G02*
X19753750Y13065000I243750J0D01*
G01*
X20241250Y13065000D01*
G75*
G02*
X20485000Y12821250I0J-243750D01*
G01*
G37*
%TD*%
%TO.C,D5*%
G36*
G01*
X18910000Y7741250D02*
X18910000Y7178750D01*
G75*
G02*
X18666250Y6935000I-243750J0D01*
G01*
X18178750Y6935000D01*
G75*
G02*
X17935000Y7178750I0J243750D01*
G01*
X17935000Y7741250D01*
G75*
G02*
X18178750Y7985000I243750J0D01*
G01*
X18666250Y7985000D01*
G75*
G02*
X18910000Y7741250I0J-243750D01*
G01*
G37*
G36*
G01*
X20485000Y7741250D02*
X20485000Y7178750D01*
G75*
G02*
X20241250Y6935000I-243750J0D01*
G01*
X19753750Y6935000D01*
G75*
G02*
X19510000Y7178750I0J243750D01*
G01*
X19510000Y7741250D01*
G75*
G02*
X19753750Y7985000I243750J0D01*
G01*
X20241250Y7985000D01*
G75*
G02*
X20485000Y7741250I0J-243750D01*
G01*
G37*
%TD*%
%TO.C,D4*%
G36*
G01*
X18910000Y10281250D02*
X18910000Y9718750D01*
G75*
G02*
X18666250Y9475000I-243750J0D01*
G01*
X18178750Y9475000D01*
G75*
G02*
X17935000Y9718750I0J243750D01*
G01*
X17935000Y10281250D01*
G75*
G02*
X18178750Y10525000I243750J0D01*
G01*
X18666250Y10525000D01*
G75*
G02*
X18910000Y10281250I0J-243750D01*
G01*
G37*
G36*
G01*
X20485000Y10281250D02*
X20485000Y9718750D01*
G75*
G02*
X20241250Y9475000I-243750J0D01*
G01*
X19753750Y9475000D01*
G75*
G02*
X19510000Y9718750I0J243750D01*
G01*
X19510000Y10281250D01*
G75*
G02*
X19753750Y10525000I243750J0D01*
G01*
X20241250Y10525000D01*
G75*
G02*
X20485000Y10281250I0J-243750D01*
G01*
G37*
%TD*%
%TO.C,C3*%
G36*
G01*
X16025000Y4825000D02*
X16575000Y4825000D01*
G75*
G02*
X16825000Y4575000I0J-250000D01*
G01*
X16825000Y4075000D01*
G75*
G02*
X16575000Y3825000I-250000J0D01*
G01*
X16025000Y3825000D01*
G75*
G02*
X15775000Y4075000I0J250000D01*
G01*
X15775000Y4575000D01*
G75*
G02*
X16025000Y4825000I250000J0D01*
G01*
G37*
G36*
G01*
X16025000Y6375000D02*
X16575000Y6375000D01*
G75*
G02*
X16825000Y6125000I0J-250000D01*
G01*
X16825000Y5625000D01*
G75*
G02*
X16575000Y5375000I-250000J0D01*
G01*
X16025000Y5375000D01*
G75*
G02*
X15775000Y5625000I0J250000D01*
G01*
X15775000Y6125000D01*
G75*
G02*
X16025000Y6375000I250000J0D01*
G01*
G37*
%TD*%
%TO.C,C2*%
G36*
G01*
X20955000Y4450000D02*
X21345000Y4450000D01*
G75*
G02*
X21510000Y4285000I0J-165000D01*
G01*
X21510000Y3955000D01*
G75*
G02*
X21345000Y3790000I-165000J0D01*
G01*
X20955000Y3790000D01*
G75*
G02*
X20790000Y3955000I0J165000D01*
G01*
X20790000Y4285000D01*
G75*
G02*
X20955000Y4450000I165000J0D01*
G01*
G37*
G36*
G01*
X20955000Y5410000D02*
X21345000Y5410000D01*
G75*
G02*
X21510000Y5245000I0J-165000D01*
G01*
X21510000Y4915000D01*
G75*
G02*
X21345000Y4750000I-165000J0D01*
G01*
X20955000Y4750000D01*
G75*
G02*
X20790000Y4915000I0J165000D01*
G01*
X20790000Y5245000D01*
G75*
G02*
X20955000Y5410000I165000J0D01*
G01*
G37*
%TD*%
%TO.C,C5*%
G36*
G01*
X9095000Y10950000D02*
X8705000Y10950000D01*
G75*
G02*
X8540000Y11115000I0J165000D01*
G01*
X8540000Y11445000D01*
G75*
G02*
X8705000Y11610000I165000J0D01*
G01*
X9095000Y11610000D01*
G75*
G02*
X9260000Y11445000I0J-165000D01*
G01*
X9260000Y11115000D01*
G75*
G02*
X9095000Y10950000I-165000J0D01*
G01*
G37*
G36*
G01*
X9095000Y9990000D02*
X8705000Y9990000D01*
G75*
G02*
X8540000Y10155000I0J165000D01*
G01*
X8540000Y10485000D01*
G75*
G02*
X8705000Y10650000I165000J0D01*
G01*
X9095000Y10650000D01*
G75*
G02*
X9260000Y10485000I0J-165000D01*
G01*
X9260000Y10155000D01*
G75*
G02*
X9095000Y9990000I-165000J0D01*
G01*
G37*
%TD*%
%TO.C,C7*%
G36*
G01*
X12695000Y13200000D02*
X12305000Y13200000D01*
G75*
G02*
X12140000Y13365000I0J165000D01*
G01*
X12140000Y13695000D01*
G75*
G02*
X12305000Y13860000I165000J0D01*
G01*
X12695000Y13860000D01*
G75*
G02*
X12860000Y13695000I0J-165000D01*
G01*
X12860000Y13365000D01*
G75*
G02*
X12695000Y13200000I-165000J0D01*
G01*
G37*
G36*
G01*
X12695000Y12240000D02*
X12305000Y12240000D01*
G75*
G02*
X12140000Y12405000I0J165000D01*
G01*
X12140000Y12735000D01*
G75*
G02*
X12305000Y12900000I165000J0D01*
G01*
X12695000Y12900000D01*
G75*
G02*
X12860000Y12735000I0J-165000D01*
G01*
X12860000Y12405000D01*
G75*
G02*
X12695000Y12240000I-165000J0D01*
G01*
G37*
%TD*%
%TO.C,C6*%
G36*
G01*
X11195000Y13200000D02*
X10805000Y13200000D01*
G75*
G02*
X10640000Y13365000I0J165000D01*
G01*
X10640000Y13695000D01*
G75*
G02*
X10805000Y13860000I165000J0D01*
G01*
X11195000Y13860000D01*
G75*
G02*
X11360000Y13695000I0J-165000D01*
G01*
X11360000Y13365000D01*
G75*
G02*
X11195000Y13200000I-165000J0D01*
G01*
G37*
G36*
G01*
X11195000Y12240000D02*
X10805000Y12240000D01*
G75*
G02*
X10640000Y12405000I0J165000D01*
G01*
X10640000Y12735000D01*
G75*
G02*
X10805000Y12900000I165000J0D01*
G01*
X11195000Y12900000D01*
G75*
G02*
X11360000Y12735000I0J-165000D01*
G01*
X11360000Y12405000D01*
G75*
G02*
X11195000Y12240000I-165000J0D01*
G01*
G37*
%TD*%
%TO.C,C1*%
G36*
G01*
X16025000Y1825000D02*
X16575000Y1825000D01*
G75*
G02*
X16825000Y1575000I0J-250000D01*
G01*
X16825000Y1075000D01*
G75*
G02*
X16575000Y825000I-250000J0D01*
G01*
X16025000Y825000D01*
G75*
G02*
X15775000Y1075000I0J250000D01*
G01*
X15775000Y1575000D01*
G75*
G02*
X16025000Y1825000I250000J0D01*
G01*
G37*
G36*
G01*
X16025000Y3375000D02*
X16575000Y3375000D01*
G75*
G02*
X16825000Y3125000I0J-250000D01*
G01*
X16825000Y2625000D01*
G75*
G02*
X16575000Y2375000I-250000J0D01*
G01*
X16025000Y2375000D01*
G75*
G02*
X15775000Y2625000I0J250000D01*
G01*
X15775000Y3125000D01*
G75*
G02*
X16025000Y3375000I250000J0D01*
G01*
G37*
%TD*%
%TO.C,U2*%
G36*
G01*
X10625000Y10925000D02*
X12375000Y10925000D01*
G75*
G02*
X12425000Y10875000I0J-50000D01*
G01*
X12425000Y9125000D01*
G75*
G02*
X12375000Y9075000I-50000J0D01*
G01*
X10625000Y9075000D01*
G75*
G02*
X10575000Y9125000I0J50000D01*
G01*
X10575000Y10875000D01*
G75*
G02*
X10625000Y10925000I50000J0D01*
G01*
G37*
G36*
G01*
X12637500Y10925000D02*
X13312500Y10925000D01*
G75*
G02*
X13400000Y10837500I0J-87500D01*
G01*
X13400000Y10662500D01*
G75*
G02*
X13312500Y10575000I-87500J0D01*
G01*
X12637500Y10575000D01*
G75*
G02*
X12550000Y10662500I0J87500D01*
G01*
X12550000Y10837500D01*
G75*
G02*
X12637500Y10925000I87500J0D01*
G01*
G37*
G36*
G01*
X12637500Y10425000D02*
X13312500Y10425000D01*
G75*
G02*
X13400000Y10337500I0J-87500D01*
G01*
X13400000Y10162500D01*
G75*
G02*
X13312500Y10075000I-87500J0D01*
G01*
X12637500Y10075000D01*
G75*
G02*
X12550000Y10162500I0J87500D01*
G01*
X12550000Y10337500D01*
G75*
G02*
X12637500Y10425000I87500J0D01*
G01*
G37*
G36*
G01*
X12637500Y9925000D02*
X13312500Y9925000D01*
G75*
G02*
X13400000Y9837500I0J-87500D01*
G01*
X13400000Y9662500D01*
G75*
G02*
X13312500Y9575000I-87500J0D01*
G01*
X12637500Y9575000D01*
G75*
G02*
X12550000Y9662500I0J87500D01*
G01*
X12550000Y9837500D01*
G75*
G02*
X12637500Y9925000I87500J0D01*
G01*
G37*
G36*
G01*
X12637500Y9425000D02*
X13312500Y9425000D01*
G75*
G02*
X13400000Y9337500I0J-87500D01*
G01*
X13400000Y9162500D01*
G75*
G02*
X13312500Y9075000I-87500J0D01*
G01*
X12637500Y9075000D01*
G75*
G02*
X12550000Y9162500I0J87500D01*
G01*
X12550000Y9337500D01*
G75*
G02*
X12637500Y9425000I87500J0D01*
G01*
G37*
G36*
G01*
X12162500Y8950000D02*
X12337500Y8950000D01*
G75*
G02*
X12425000Y8862500I0J-87500D01*
G01*
X12425000Y8187500D01*
G75*
G02*
X12337500Y8100000I-87500J0D01*
G01*
X12162500Y8100000D01*
G75*
G02*
X12075000Y8187500I0J87500D01*
G01*
X12075000Y8862500D01*
G75*
G02*
X12162500Y8950000I87500J0D01*
G01*
G37*
G36*
G01*
X11662500Y8950000D02*
X11837500Y8950000D01*
G75*
G02*
X11925000Y8862500I0J-87500D01*
G01*
X11925000Y8187500D01*
G75*
G02*
X11837500Y8100000I-87500J0D01*
G01*
X11662500Y8100000D01*
G75*
G02*
X11575000Y8187500I0J87500D01*
G01*
X11575000Y8862500D01*
G75*
G02*
X11662500Y8950000I87500J0D01*
G01*
G37*
G36*
G01*
X11162500Y8950000D02*
X11337500Y8950000D01*
G75*
G02*
X11425000Y8862500I0J-87500D01*
G01*
X11425000Y8187500D01*
G75*
G02*
X11337500Y8100000I-87500J0D01*
G01*
X11162500Y8100000D01*
G75*
G02*
X11075000Y8187500I0J87500D01*
G01*
X11075000Y8862500D01*
G75*
G02*
X11162500Y8950000I87500J0D01*
G01*
G37*
G36*
G01*
X10662500Y8950000D02*
X10837500Y8950000D01*
G75*
G02*
X10925000Y8862500I0J-87500D01*
G01*
X10925000Y8187500D01*
G75*
G02*
X10837500Y8100000I-87500J0D01*
G01*
X10662500Y8100000D01*
G75*
G02*
X10575000Y8187500I0J87500D01*
G01*
X10575000Y8862500D01*
G75*
G02*
X10662500Y8950000I87500J0D01*
G01*
G37*
G36*
G01*
X9687500Y9425000D02*
X10362500Y9425000D01*
G75*
G02*
X10450000Y9337500I0J-87500D01*
G01*
X10450000Y9162500D01*
G75*
G02*
X10362500Y9075000I-87500J0D01*
G01*
X9687500Y9075000D01*
G75*
G02*
X9600000Y9162500I0J87500D01*
G01*
X9600000Y9337500D01*
G75*
G02*
X9687500Y9425000I87500J0D01*
G01*
G37*
G36*
G01*
X9687500Y9925000D02*
X10362500Y9925000D01*
G75*
G02*
X10450000Y9837500I0J-87500D01*
G01*
X10450000Y9662500D01*
G75*
G02*
X10362500Y9575000I-87500J0D01*
G01*
X9687500Y9575000D01*
G75*
G02*
X9600000Y9662500I0J87500D01*
G01*
X9600000Y9837500D01*
G75*
G02*
X9687500Y9925000I87500J0D01*
G01*
G37*
G36*
G01*
X9687500Y10425000D02*
X10362500Y10425000D01*
G75*
G02*
X10450000Y10337500I0J-87500D01*
G01*
X10450000Y10162500D01*
G75*
G02*
X10362500Y10075000I-87500J0D01*
G01*
X9687500Y10075000D01*
G75*
G02*
X9600000Y10162500I0J87500D01*
G01*
X9600000Y10337500D01*
G75*
G02*
X9687500Y10425000I87500J0D01*
G01*
G37*
G36*
G01*
X9687500Y10925000D02*
X10362500Y10925000D01*
G75*
G02*
X10450000Y10837500I0J-87500D01*
G01*
X10450000Y10662500D01*
G75*
G02*
X10362500Y10575000I-87500J0D01*
G01*
X9687500Y10575000D01*
G75*
G02*
X9600000Y10662500I0J87500D01*
G01*
X9600000Y10837500D01*
G75*
G02*
X9687500Y10925000I87500J0D01*
G01*
G37*
G36*
G01*
X10662500Y11900000D02*
X10837500Y11900000D01*
G75*
G02*
X10925000Y11812500I0J-87500D01*
G01*
X10925000Y11137500D01*
G75*
G02*
X10837500Y11050000I-87500J0D01*
G01*
X10662500Y11050000D01*
G75*
G02*
X10575000Y11137500I0J87500D01*
G01*
X10575000Y11812500D01*
G75*
G02*
X10662500Y11900000I87500J0D01*
G01*
G37*
G36*
G01*
X11162500Y11900000D02*
X11337500Y11900000D01*
G75*
G02*
X11425000Y11812500I0J-87500D01*
G01*
X11425000Y11137500D01*
G75*
G02*
X11337500Y11050000I-87500J0D01*
G01*
X11162500Y11050000D01*
G75*
G02*
X11075000Y11137500I0J87500D01*
G01*
X11075000Y11812500D01*
G75*
G02*
X11162500Y11900000I87500J0D01*
G01*
G37*
G36*
G01*
X11662500Y11900000D02*
X11837500Y11900000D01*
G75*
G02*
X11925000Y11812500I0J-87500D01*
G01*
X11925000Y11137500D01*
G75*
G02*
X11837500Y11050000I-87500J0D01*
G01*
X11662500Y11050000D01*
G75*
G02*
X11575000Y11137500I0J87500D01*
G01*
X11575000Y11812500D01*
G75*
G02*
X11662500Y11900000I87500J0D01*
G01*
G37*
G36*
G01*
X12162500Y11900000D02*
X12337500Y11900000D01*
G75*
G02*
X12425000Y11812500I0J-87500D01*
G01*
X12425000Y11137500D01*
G75*
G02*
X12337500Y11050000I-87500J0D01*
G01*
X12162500Y11050000D01*
G75*
G02*
X12075000Y11137500I0J87500D01*
G01*
X12075000Y11812500D01*
G75*
G02*
X12162500Y11900000I87500J0D01*
G01*
G37*
%TD*%
%TO.C,U1*%
G36*
G01*
X18225000Y4520000D02*
X17575000Y4520000D01*
G75*
G02*
X17525000Y4570000I0J50000D01*
G01*
X17525000Y5630000D01*
G75*
G02*
X17575000Y5680000I50000J0D01*
G01*
X18225000Y5680000D01*
G75*
G02*
X18275000Y5630000I0J-50000D01*
G01*
X18275000Y4570000D01*
G75*
G02*
X18225000Y4520000I-50000J0D01*
G01*
G37*
G36*
G01*
X20125000Y4520000D02*
X19475000Y4520000D01*
G75*
G02*
X19425000Y4570000I0J50000D01*
G01*
X19425000Y5630000D01*
G75*
G02*
X19475000Y5680000I50000J0D01*
G01*
X20125000Y5680000D01*
G75*
G02*
X20175000Y5630000I0J-50000D01*
G01*
X20175000Y4570000D01*
G75*
G02*
X20125000Y4520000I-50000J0D01*
G01*
G37*
G36*
G01*
X20125000Y2320000D02*
X19475000Y2320000D01*
G75*
G02*
X19425000Y2370000I0J50000D01*
G01*
X19425000Y3430000D01*
G75*
G02*
X19475000Y3480000I50000J0D01*
G01*
X20125000Y3480000D01*
G75*
G02*
X20175000Y3430000I0J-50000D01*
G01*
X20175000Y2370000D01*
G75*
G02*
X20125000Y2320000I-50000J0D01*
G01*
G37*
G36*
G01*
X19175000Y2320000D02*
X18525000Y2320000D01*
G75*
G02*
X18475000Y2370000I0J50000D01*
G01*
X18475000Y3430000D01*
G75*
G02*
X18525000Y3480000I50000J0D01*
G01*
X19175000Y3480000D01*
G75*
G02*
X19225000Y3430000I0J-50000D01*
G01*
X19225000Y2370000D01*
G75*
G02*
X19175000Y2320000I-50000J0D01*
G01*
G37*
G36*
G01*
X18225000Y2320000D02*
X17575000Y2320000D01*
G75*
G02*
X17525000Y2370000I0J50000D01*
G01*
X17525000Y3430000D01*
G75*
G02*
X17575000Y3480000I50000J0D01*
G01*
X18225000Y3480000D01*
G75*
G02*
X18275000Y3430000I0J-50000D01*
G01*
X18275000Y2370000D01*
G75*
G02*
X18225000Y2320000I-50000J0D01*
G01*
G37*
%TD*%
%TO.C,J1*%
G36*
G01*
X4350000Y7150000D02*
X6350000Y7150000D01*
G75*
G02*
X6400000Y7100000I0J-50000D01*
G01*
X6400000Y5900000D01*
G75*
G02*
X6350000Y5850000I-50000J0D01*
G01*
X4350000Y5850000D01*
G75*
G02*
X4300000Y5900000I0J50000D01*
G01*
X4300000Y7100000D01*
G75*
G02*
X4350000Y7150000I50000J0D01*
G01*
G37*
G36*
G01*
X4350000Y9650000D02*
X6350000Y9650000D01*
G75*
G02*
X6400000Y9600000I0J-50000D01*
G01*
X6400000Y8400000D01*
G75*
G02*
X6350000Y8350000I-50000J0D01*
G01*
X4350000Y8350000D01*
G75*
G02*
X4300000Y8400000I0J50000D01*
G01*
X4300000Y9600000D01*
G75*
G02*
X4350000Y9650000I50000J0D01*
G01*
G37*
G36*
G01*
X4350000Y11650000D02*
X6350000Y11650000D01*
G75*
G02*
X6400000Y11600000I0J-50000D01*
G01*
X6400000Y10400000D01*
G75*
G02*
X6350000Y10350000I-50000J0D01*
G01*
X4350000Y10350000D01*
G75*
G02*
X4300000Y10400000I0J50000D01*
G01*
X4300000Y11600000D01*
G75*
G02*
X4350000Y11650000I50000J0D01*
G01*
G37*
G36*
G01*
X4350000Y14150000D02*
X6350000Y14150000D01*
G75*
G02*
X6400000Y14100000I0J-50000D01*
G01*
X6400000Y12900000D01*
G75*
G02*
X6350000Y12850000I-50000J0D01*
G01*
X4350000Y12850000D01*
G75*
G02*
X4300000Y12900000I0J50000D01*
G01*
X4300000Y14100000D01*
G75*
G02*
X4350000Y14150000I50000J0D01*
G01*
G37*
D10*
X2750000Y7750000D03*
X2750000Y12250000D03*
D11*
X2750000Y4150000D03*
X2750000Y15850000D03*
%TD*%
%TO.C,D3*%
G36*
G01*
X7375000Y7550000D02*
X7625000Y7550000D01*
G75*
G02*
X7675000Y7500000I0J-50000D01*
G01*
X7675000Y7140000D01*
G75*
G02*
X7625000Y7090000I-50000J0D01*
G01*
X7375000Y7090000D01*
G75*
G02*
X7325000Y7140000I0J50000D01*
G01*
X7325000Y7500000D01*
G75*
G02*
X7375000Y7550000I50000J0D01*
G01*
G37*
G36*
G01*
X7375000Y6710000D02*
X7625000Y6710000D01*
G75*
G02*
X7675000Y6660000I0J-50000D01*
G01*
X7675000Y6300000D01*
G75*
G02*
X7625000Y6250000I-50000J0D01*
G01*
X7375000Y6250000D01*
G75*
G02*
X7325000Y6300000I0J50000D01*
G01*
X7325000Y6660000D01*
G75*
G02*
X7375000Y6710000I50000J0D01*
G01*
G37*
%TD*%
%TO.C,D2*%
G36*
G01*
X7375000Y11500000D02*
X7625000Y11500000D01*
G75*
G02*
X7675000Y11450000I0J-50000D01*
G01*
X7675000Y11090000D01*
G75*
G02*
X7625000Y11040000I-50000J0D01*
G01*
X7375000Y11040000D01*
G75*
G02*
X7325000Y11090000I0J50000D01*
G01*
X7325000Y11450000D01*
G75*
G02*
X7375000Y11500000I50000J0D01*
G01*
G37*
G36*
G01*
X7375000Y10660000D02*
X7625000Y10660000D01*
G75*
G02*
X7675000Y10610000I0J-50000D01*
G01*
X7675000Y10250000D01*
G75*
G02*
X7625000Y10200000I-50000J0D01*
G01*
X7375000Y10200000D01*
G75*
G02*
X7325000Y10250000I0J50000D01*
G01*
X7325000Y10610000D01*
G75*
G02*
X7375000Y10660000I50000J0D01*
G01*
G37*
%TD*%
%TO.C,D1*%
G36*
G01*
X7625000Y8500000D02*
X7375000Y8500000D01*
G75*
G02*
X7325000Y8550000I0J50000D01*
G01*
X7325000Y8910000D01*
G75*
G02*
X7375000Y8960000I50000J0D01*
G01*
X7625000Y8960000D01*
G75*
G02*
X7675000Y8910000I0J-50000D01*
G01*
X7675000Y8550000D01*
G75*
G02*
X7625000Y8500000I-50000J0D01*
G01*
G37*
G36*
G01*
X7625000Y9340000D02*
X7375000Y9340000D01*
G75*
G02*
X7325000Y9390000I0J50000D01*
G01*
X7325000Y9750000D01*
G75*
G02*
X7375000Y9800000I50000J0D01*
G01*
X7625000Y9800000D01*
G75*
G02*
X7675000Y9750000I0J-50000D01*
G01*
X7675000Y9390000D01*
G75*
G02*
X7625000Y9340000I-50000J0D01*
G01*
G37*
%TD*%
M02*
