%TF.GenerationSoftware,KiCad,Pcbnew,(5.1.12-1-10_14)*%
%TF.CreationDate,2022-05-25T15:41:46+08:00*%
%TF.ProjectId,USB2TTL,55534232-5454-44c2-9e6b-696361645f70,V1.0*%
%TF.SameCoordinates,Original*%
%TF.FileFunction,Legend,Bot*%
%TF.FilePolarity,Positive*%
%FSLAX46Y46*%
G04 Gerber Fmt 4.6, Leading zero omitted, Abs format (unit mm)*
G04 Created by KiCad (PCBNEW (5.1.12-1-10_14)) date 2022-05-25 15:41:46*
%MOMM*%
%LPD*%
G01*
G04 APERTURE LIST*
%ADD10C,0.120000*%
%ADD11C,0.180000*%
%ADD12C,0.150000*%
G04 APERTURE END LIST*
D10*
X20607714Y8438096D02*
X20074380Y7638096D01*
X20074380Y8438096D02*
X20607714Y7638096D01*
X19769619Y7638096D02*
X19769619Y8171429D01*
X19769619Y8438096D02*
X19807714Y8400000D01*
X19769619Y8361905D01*
X19731523Y8400000D01*
X19769619Y8438096D01*
X19769619Y8361905D01*
X19388666Y7638096D02*
X19388666Y8438096D01*
X18931523Y7638096D01*
X18931523Y8438096D01*
X18131523Y8400000D02*
X18207714Y8438096D01*
X18322000Y8438096D01*
X18436285Y8400000D01*
X18512476Y8323810D01*
X18550571Y8247620D01*
X18588666Y8095239D01*
X18588666Y7980953D01*
X18550571Y7828572D01*
X18512476Y7752381D01*
X18436285Y7676191D01*
X18322000Y7638096D01*
X18245809Y7638096D01*
X18131523Y7676191D01*
X18093428Y7714286D01*
X18093428Y7980953D01*
X18245809Y7980953D01*
X17293428Y7638096D02*
X17560095Y8019048D01*
X17750571Y7638096D02*
X17750571Y8438096D01*
X17445809Y8438096D01*
X17369619Y8400000D01*
X17331523Y8361905D01*
X17293428Y8285715D01*
X17293428Y8171429D01*
X17331523Y8095239D01*
X17369619Y8057143D01*
X17445809Y8019048D01*
X17750571Y8019048D01*
X17026761Y8438096D02*
X16493428Y8438096D01*
X17026761Y7638096D01*
X16493428Y7638096D01*
D11*
X20573476Y10821429D02*
X20573476Y9607143D01*
X20511571Y9464286D01*
X20449666Y9392858D01*
X20325857Y9321429D01*
X20078238Y9321429D01*
X19954428Y9392858D01*
X19892523Y9464286D01*
X19830619Y9607143D01*
X19830619Y10821429D01*
X19273476Y9392858D02*
X19087761Y9321429D01*
X18778238Y9321429D01*
X18654428Y9392858D01*
X18592523Y9464286D01*
X18530619Y9607143D01*
X18530619Y9750000D01*
X18592523Y9892858D01*
X18654428Y9964286D01*
X18778238Y10035715D01*
X19025857Y10107143D01*
X19149666Y10178572D01*
X19211571Y10250000D01*
X19273476Y10392858D01*
X19273476Y10535715D01*
X19211571Y10678572D01*
X19149666Y10750000D01*
X19025857Y10821429D01*
X18716333Y10821429D01*
X18530619Y10750000D01*
X17540142Y10107143D02*
X17354428Y10035715D01*
X17292523Y9964286D01*
X17230619Y9821429D01*
X17230619Y9607143D01*
X17292523Y9464286D01*
X17354428Y9392858D01*
X17478238Y9321429D01*
X17973476Y9321429D01*
X17973476Y10821429D01*
X17540142Y10821429D01*
X17416333Y10750000D01*
X17354428Y10678572D01*
X17292523Y10535715D01*
X17292523Y10392858D01*
X17354428Y10250000D01*
X17416333Y10178572D01*
X17540142Y10107143D01*
X17973476Y10107143D01*
X15744904Y9392858D02*
X15559190Y9321429D01*
X15249666Y9321429D01*
X15125857Y9392858D01*
X15063952Y9464286D01*
X15002047Y9607143D01*
X15002047Y9750000D01*
X15063952Y9892858D01*
X15125857Y9964286D01*
X15249666Y10035715D01*
X15497285Y10107143D01*
X15621095Y10178572D01*
X15683000Y10250000D01*
X15744904Y10392858D01*
X15744904Y10535715D01*
X15683000Y10678572D01*
X15621095Y10750000D01*
X15497285Y10821429D01*
X15187761Y10821429D01*
X15002047Y10750000D01*
X14444904Y10107143D02*
X14011571Y10107143D01*
X13825857Y9321429D02*
X14444904Y9321429D01*
X14444904Y10821429D01*
X13825857Y10821429D01*
X12525857Y9321429D02*
X12959190Y10035715D01*
X13268714Y9321429D02*
X13268714Y10821429D01*
X12773476Y10821429D01*
X12649666Y10750000D01*
X12587761Y10678572D01*
X12525857Y10535715D01*
X12525857Y10321429D01*
X12587761Y10178572D01*
X12649666Y10107143D01*
X12773476Y10035715D01*
X13268714Y10035715D01*
X11968714Y9321429D02*
X11968714Y10821429D01*
X11411571Y9750000D02*
X10792523Y9750000D01*
X11535380Y9321429D02*
X11102047Y10821429D01*
X10668714Y9321429D01*
X9616333Y9321429D02*
X10235380Y9321429D01*
X10235380Y10821429D01*
X8378238Y10821429D02*
X7944904Y9321429D01*
X7511571Y10821429D01*
X6397285Y9321429D02*
X7140142Y9321429D01*
X6768714Y9321429D02*
X6768714Y10821429D01*
X6892523Y10607143D01*
X7016333Y10464286D01*
X7140142Y10392858D01*
X5840142Y9464286D02*
X5778238Y9392858D01*
X5840142Y9321429D01*
X5902047Y9392858D01*
X5840142Y9464286D01*
X5840142Y9321429D01*
X4973476Y10821429D02*
X4849666Y10821429D01*
X4725857Y10750000D01*
X4663952Y10678572D01*
X4602047Y10535715D01*
X4540142Y10250000D01*
X4540142Y9892858D01*
X4602047Y9607143D01*
X4663952Y9464286D01*
X4725857Y9392858D01*
X4849666Y9321429D01*
X4973476Y9321429D01*
X5097285Y9392858D01*
X5159190Y9464286D01*
X5221095Y9607143D01*
X5283000Y9892858D01*
X5283000Y10250000D01*
X5221095Y10535715D01*
X5159190Y10678572D01*
X5097285Y10750000D01*
X4973476Y10821429D01*
D12*
X25810595Y5420000D02*
X25905833Y5467620D01*
X26048690Y5467620D01*
X26191547Y5420000D01*
X26286785Y5324762D01*
X26334404Y5229524D01*
X26382023Y5039048D01*
X26382023Y4896191D01*
X26334404Y4705715D01*
X26286785Y4610477D01*
X26191547Y4515239D01*
X26048690Y4467620D01*
X25953452Y4467620D01*
X25810595Y4515239D01*
X25762976Y4562858D01*
X25762976Y4896191D01*
X25953452Y4896191D01*
X25334404Y4467620D02*
X25334404Y5467620D01*
X24762976Y4467620D01*
X24762976Y5467620D01*
X24286785Y4467620D02*
X24286785Y5467620D01*
X24048690Y5467620D01*
X23905833Y5420000D01*
X23810595Y5324762D01*
X23762976Y5229524D01*
X23715357Y5039048D01*
X23715357Y4896191D01*
X23762976Y4705715D01*
X23810595Y4610477D01*
X23905833Y4515239D01*
X24048690Y4467620D01*
X24286785Y4467620D01*
X25762976Y7007620D02*
X26096309Y7483810D01*
X26334404Y7007620D02*
X26334404Y8007620D01*
X25953452Y8007620D01*
X25858214Y7960000D01*
X25810595Y7912381D01*
X25762976Y7817143D01*
X25762976Y7674286D01*
X25810595Y7579048D01*
X25858214Y7531429D01*
X25953452Y7483810D01*
X26334404Y7483810D01*
X25429642Y8007620D02*
X24762976Y7007620D01*
X24762976Y8007620D02*
X25429642Y7007620D01*
X24382023Y7007620D02*
X24382023Y8007620D01*
X24143928Y8007620D01*
X24001071Y7960000D01*
X23905833Y7864762D01*
X23858214Y7769524D01*
X23810595Y7579048D01*
X23810595Y7436191D01*
X23858214Y7245715D01*
X23905833Y7150477D01*
X24001071Y7055239D01*
X24143928Y7007620D01*
X24382023Y7007620D01*
X26477261Y10547620D02*
X25905833Y10547620D01*
X26191547Y9547620D02*
X26191547Y10547620D01*
X25667738Y10547620D02*
X25001071Y9547620D01*
X25001071Y10547620D02*
X25667738Y9547620D01*
X24620119Y9547620D02*
X24620119Y10547620D01*
X24382023Y10547620D01*
X24239166Y10500000D01*
X24143928Y10404762D01*
X24096309Y10309524D01*
X24048690Y10119048D01*
X24048690Y9976191D01*
X24096309Y9785715D01*
X24143928Y9690477D01*
X24239166Y9595239D01*
X24382023Y9547620D01*
X24620119Y9547620D01*
X26001071Y12611429D02*
X25858214Y12563810D01*
X25810595Y12516191D01*
X25762976Y12420953D01*
X25762976Y12278096D01*
X25810595Y12182858D01*
X25858214Y12135239D01*
X25953452Y12087620D01*
X26334404Y12087620D01*
X26334404Y13087620D01*
X26001071Y13087620D01*
X25905833Y13040000D01*
X25858214Y12992381D01*
X25810595Y12897143D01*
X25810595Y12801905D01*
X25858214Y12706667D01*
X25905833Y12659048D01*
X26001071Y12611429D01*
X26334404Y12611429D01*
X25143928Y13087620D02*
X24953452Y13087620D01*
X24858214Y13040000D01*
X24762976Y12944762D01*
X24715357Y12754286D01*
X24715357Y12420953D01*
X24762976Y12230477D01*
X24858214Y12135239D01*
X24953452Y12087620D01*
X25143928Y12087620D01*
X25239166Y12135239D01*
X25334404Y12230477D01*
X25382023Y12420953D01*
X25382023Y12754286D01*
X25334404Y12944762D01*
X25239166Y13040000D01*
X25143928Y13087620D01*
X24096309Y13087620D02*
X23905833Y13087620D01*
X23810595Y13040000D01*
X23715357Y12944762D01*
X23667738Y12754286D01*
X23667738Y12420953D01*
X23715357Y12230477D01*
X23810595Y12135239D01*
X23905833Y12087620D01*
X24096309Y12087620D01*
X24191547Y12135239D01*
X24286785Y12230477D01*
X24334404Y12420953D01*
X24334404Y12754286D01*
X24286785Y12944762D01*
X24191547Y13040000D01*
X24096309Y13087620D01*
X23382023Y13087620D02*
X22810595Y13087620D01*
X23096309Y12087620D02*
X23096309Y13087620D01*
X26477261Y15627620D02*
X26143928Y14627620D01*
X25810595Y15627620D01*
X25286785Y15627620D02*
X25096309Y15627620D01*
X25001071Y15580000D01*
X24905833Y15484762D01*
X24858214Y15294286D01*
X24858214Y14960953D01*
X24905833Y14770477D01*
X25001071Y14675239D01*
X25096309Y14627620D01*
X25286785Y14627620D01*
X25382023Y14675239D01*
X25477261Y14770477D01*
X25524880Y14960953D01*
X25524880Y15294286D01*
X25477261Y15484762D01*
X25382023Y15580000D01*
X25286785Y15627620D01*
X24429642Y15627620D02*
X24429642Y14818096D01*
X24382023Y14722858D01*
X24334404Y14675239D01*
X24239166Y14627620D01*
X24048690Y14627620D01*
X23953452Y14675239D01*
X23905833Y14722858D01*
X23858214Y14818096D01*
X23858214Y15627620D01*
X23524880Y15627620D02*
X22953452Y15627620D01*
X23239166Y14627620D02*
X23239166Y15627620D01*
M02*
