%TF.GenerationSoftware,KiCad,Pcbnew,(5.1.12-1-10_14)*%
%TF.CreationDate,2022-05-25T15:41:46+08:00*%
%TF.ProjectId,USB2TTL,55534232-5454-44c2-9e6b-696361645f70,V1.0*%
%TF.SameCoordinates,Original*%
%TF.FileFunction,Legend,Top*%
%TF.FilePolarity,Positive*%
%FSLAX46Y46*%
G04 Gerber Fmt 4.6, Leading zero omitted, Abs format (unit mm)*
G04 Created by KiCad (PCBNEW (5.1.12-1-10_14)) date 2022-05-25 15:41:46*
%MOMM*%
%LPD*%
G01*
G04 APERTURE LIST*
%ADD10C,0.150000*%
%ADD11C,0.120000*%
%ADD12C,0.127000*%
G04 APERTURE END LIST*
D10*
X22907023Y1642858D02*
X22859404Y1595239D01*
X22716547Y1547620D01*
X22621309Y1547620D01*
X22478452Y1595239D01*
X22383214Y1690477D01*
X22335595Y1785715D01*
X22287976Y1976191D01*
X22287976Y2119048D01*
X22335595Y2309524D01*
X22383214Y2404762D01*
X22478452Y2500000D01*
X22621309Y2547620D01*
X22716547Y2547620D01*
X22859404Y2500000D01*
X22907023Y2452381D01*
X23335595Y1547620D02*
X23335595Y2547620D01*
X23335595Y2071429D02*
X23907023Y2071429D01*
X23907023Y1547620D02*
X23907023Y2547620D01*
X24287976Y2547620D02*
X24907023Y2547620D01*
X24573690Y2166667D01*
X24716547Y2166667D01*
X24811785Y2119048D01*
X24859404Y2071429D01*
X24907023Y1976191D01*
X24907023Y1738096D01*
X24859404Y1642858D01*
X24811785Y1595239D01*
X24716547Y1547620D01*
X24430833Y1547620D01*
X24335595Y1595239D01*
X24287976Y1642858D01*
X25764166Y2214286D02*
X25764166Y1547620D01*
X25526071Y2595239D02*
X25287976Y1880953D01*
X25907023Y1880953D01*
X26192738Y2547620D02*
X26811785Y2547620D01*
X26478452Y2166667D01*
X26621309Y2166667D01*
X26716547Y2119048D01*
X26764166Y2071429D01*
X26811785Y1976191D01*
X26811785Y1738096D01*
X26764166Y1642858D01*
X26716547Y1595239D01*
X26621309Y1547620D01*
X26335595Y1547620D01*
X26240357Y1595239D01*
X26192738Y1642858D01*
X27240357Y1547620D02*
X27240357Y2547620D01*
X27621309Y2547620D01*
X27716547Y2500000D01*
X27764166Y2452381D01*
X27811785Y2357143D01*
X27811785Y2214286D01*
X27764166Y2119048D01*
X27716547Y2071429D01*
X27621309Y2023810D01*
X27240357Y2023810D01*
D11*
X13725619Y6588096D02*
X13458952Y6969048D01*
X13268476Y6588096D02*
X13268476Y7388096D01*
X13573238Y7388096D01*
X13649428Y7350000D01*
X13687523Y7311905D01*
X13725619Y7235715D01*
X13725619Y7121429D01*
X13687523Y7045239D01*
X13649428Y7007143D01*
X13573238Y6969048D01*
X13268476Y6969048D01*
X13954190Y7388096D02*
X14411333Y7388096D01*
X14182761Y6588096D02*
X14182761Y7388096D01*
X14639904Y6626191D02*
X14754190Y6588096D01*
X14944666Y6588096D01*
X15020857Y6626191D01*
X15058952Y6664286D01*
X15097047Y6740477D01*
X15097047Y6816667D01*
X15058952Y6892858D01*
X15020857Y6930953D01*
X14944666Y6969048D01*
X14792285Y7007143D01*
X14716095Y7045239D01*
X14678000Y7083334D01*
X14639904Y7159524D01*
X14639904Y7235715D01*
X14678000Y7311905D01*
X14716095Y7350000D01*
X14792285Y7388096D01*
X14982761Y7388096D01*
X15097047Y7350000D01*
X9152952Y6588096D02*
X9152952Y7388096D01*
X9343428Y7388096D01*
X9457714Y7350000D01*
X9533904Y7273810D01*
X9572000Y7197620D01*
X9610095Y7045239D01*
X9610095Y6930953D01*
X9572000Y6778572D01*
X9533904Y6702381D01*
X9457714Y6626191D01*
X9343428Y6588096D01*
X9152952Y6588096D01*
X9838666Y7388096D02*
X10295809Y7388096D01*
X10067238Y6588096D02*
X10067238Y7388096D01*
X11019619Y6588096D02*
X10752952Y6969048D01*
X10562476Y6588096D02*
X10562476Y7388096D01*
X10867238Y7388096D01*
X10943428Y7350000D01*
X10981523Y7311905D01*
X11019619Y7235715D01*
X11019619Y7121429D01*
X10981523Y7045239D01*
X10943428Y7007143D01*
X10867238Y6969048D01*
X10562476Y6969048D01*
X23006000Y5529524D02*
X23044095Y5605715D01*
X23044095Y5720000D01*
X23006000Y5834286D01*
X22929809Y5910477D01*
X22853619Y5948572D01*
X22701238Y5986667D01*
X22586952Y5986667D01*
X22434571Y5948572D01*
X22358380Y5910477D01*
X22282190Y5834286D01*
X22244095Y5720000D01*
X22244095Y5643810D01*
X22282190Y5529524D01*
X22320285Y5491429D01*
X22586952Y5491429D01*
X22586952Y5643810D01*
X22244095Y5148572D02*
X23044095Y5148572D01*
X22244095Y4691429D01*
X23044095Y4691429D01*
X22244095Y4310477D02*
X23044095Y4310477D01*
X23044095Y4120000D01*
X23006000Y4005715D01*
X22929809Y3929524D01*
X22853619Y3891429D01*
X22701238Y3853334D01*
X22586952Y3853334D01*
X22434571Y3891429D01*
X22358380Y3929524D01*
X22282190Y4005715D01*
X22244095Y4120000D01*
X22244095Y4310477D01*
X6138095Y4161905D02*
X6519047Y4428572D01*
X6138095Y4619048D02*
X6938095Y4619048D01*
X6938095Y4314286D01*
X6900000Y4238096D01*
X6861904Y4200000D01*
X6785714Y4161905D01*
X6671428Y4161905D01*
X6595238Y4200000D01*
X6557142Y4238096D01*
X6519047Y4314286D01*
X6519047Y4619048D01*
X6557142Y3819048D02*
X6557142Y3552381D01*
X6138095Y3438096D02*
X6138095Y3819048D01*
X6938095Y3819048D01*
X6938095Y3438096D01*
X6176190Y3133334D02*
X6138095Y3019048D01*
X6138095Y2828572D01*
X6176190Y2752381D01*
X6214285Y2714286D01*
X6290476Y2676191D01*
X6366666Y2676191D01*
X6442857Y2714286D01*
X6480952Y2752381D01*
X6519047Y2828572D01*
X6557142Y2980953D01*
X6595238Y3057143D01*
X6633333Y3095239D01*
X6709523Y3133334D01*
X6785714Y3133334D01*
X6861904Y3095239D01*
X6900000Y3057143D01*
X6938095Y2980953D01*
X6938095Y2790477D01*
X6900000Y2676191D01*
X6557142Y2333334D02*
X6557142Y2066667D01*
X6138095Y1952381D02*
X6138095Y2333334D01*
X6938095Y2333334D01*
X6938095Y1952381D01*
X6938095Y1723810D02*
X6938095Y1266667D01*
X6138095Y1495239D02*
X6938095Y1495239D01*
X6557142Y18085715D02*
X6519047Y17971429D01*
X6480952Y17933334D01*
X6404761Y17895239D01*
X6290476Y17895239D01*
X6214285Y17933334D01*
X6176190Y17971429D01*
X6138095Y18047620D01*
X6138095Y18352381D01*
X6938095Y18352381D01*
X6938095Y18085715D01*
X6900000Y18009524D01*
X6861904Y17971429D01*
X6785714Y17933334D01*
X6709523Y17933334D01*
X6633333Y17971429D01*
X6595238Y18009524D01*
X6557142Y18085715D01*
X6557142Y18352381D01*
X6938095Y17400000D02*
X6938095Y17247620D01*
X6900000Y17171429D01*
X6823809Y17095239D01*
X6671428Y17057143D01*
X6404761Y17057143D01*
X6252380Y17095239D01*
X6176190Y17171429D01*
X6138095Y17247620D01*
X6138095Y17400000D01*
X6176190Y17476191D01*
X6252380Y17552381D01*
X6404761Y17590477D01*
X6671428Y17590477D01*
X6823809Y17552381D01*
X6900000Y17476191D01*
X6938095Y17400000D01*
X6938095Y16561905D02*
X6938095Y16409524D01*
X6900000Y16333334D01*
X6823809Y16257143D01*
X6671428Y16219048D01*
X6404761Y16219048D01*
X6252380Y16257143D01*
X6176190Y16333334D01*
X6138095Y16409524D01*
X6138095Y16561905D01*
X6176190Y16638096D01*
X6252380Y16714286D01*
X6404761Y16752381D01*
X6671428Y16752381D01*
X6823809Y16714286D01*
X6900000Y16638096D01*
X6938095Y16561905D01*
X6938095Y15990477D02*
X6938095Y15533334D01*
X6138095Y15761905D02*
X6938095Y15761905D01*
X23044095Y15232381D02*
X23044095Y15613334D01*
X22663142Y15651429D01*
X22701238Y15613334D01*
X22739333Y15537143D01*
X22739333Y15346667D01*
X22701238Y15270477D01*
X22663142Y15232381D01*
X22586952Y15194286D01*
X22396476Y15194286D01*
X22320285Y15232381D01*
X22282190Y15270477D01*
X22244095Y15346667D01*
X22244095Y15537143D01*
X22282190Y15613334D01*
X22320285Y15651429D01*
X23044095Y14965715D02*
X22244095Y14699048D01*
X23044095Y14432381D01*
X22663142Y12863810D02*
X22625047Y12749524D01*
X22586952Y12711429D01*
X22510761Y12673334D01*
X22396476Y12673334D01*
X22320285Y12711429D01*
X22282190Y12749524D01*
X22244095Y12825715D01*
X22244095Y13130477D01*
X23044095Y13130477D01*
X23044095Y12863810D01*
X23006000Y12787620D01*
X22967904Y12749524D01*
X22891714Y12711429D01*
X22815523Y12711429D01*
X22739333Y12749524D01*
X22701238Y12787620D01*
X22663142Y12863810D01*
X22663142Y13130477D01*
X23044095Y12178096D02*
X23044095Y12101905D01*
X23006000Y12025715D01*
X22967904Y11987620D01*
X22891714Y11949524D01*
X22739333Y11911429D01*
X22548857Y11911429D01*
X22396476Y11949524D01*
X22320285Y11987620D01*
X22282190Y12025715D01*
X22244095Y12101905D01*
X22244095Y12178096D01*
X22282190Y12254286D01*
X22320285Y12292381D01*
X22396476Y12330477D01*
X22548857Y12368572D01*
X22739333Y12368572D01*
X22891714Y12330477D01*
X22967904Y12292381D01*
X23006000Y12254286D01*
X23044095Y12178096D01*
X22244095Y7593334D02*
X22625047Y7860000D01*
X22244095Y8050477D02*
X23044095Y8050477D01*
X23044095Y7745715D01*
X23006000Y7669524D01*
X22967904Y7631429D01*
X22891714Y7593334D01*
X22777428Y7593334D01*
X22701238Y7631429D01*
X22663142Y7669524D01*
X22625047Y7745715D01*
X22625047Y8050477D01*
X23044095Y7326667D02*
X22244095Y6793334D01*
X23044095Y6793334D02*
X22244095Y7326667D01*
X23044095Y10609524D02*
X23044095Y10152381D01*
X22244095Y10380953D02*
X23044095Y10380953D01*
X23044095Y9961905D02*
X22244095Y9428572D01*
X23044095Y9428572D02*
X22244095Y9961905D01*
%TO.C,J2*%
X23460000Y3650000D02*
X26960000Y3650000D01*
X23460000Y13810000D02*
X23460000Y3650000D01*
X23460000Y16350000D02*
X26960000Y16350000D01*
%TO.C,R9*%
X12220000Y6796359D02*
X12220000Y7103641D01*
X12980000Y6796359D02*
X12980000Y7103641D01*
%TO.C,R8*%
X11270000Y6796359D02*
X11270000Y7103641D01*
X12030000Y6796359D02*
X12030000Y7103641D01*
%TO.C,SW2*%
X12000000Y17000000D02*
G75*
G03*
X12000000Y17000000I-1000000J0D01*
G01*
D12*
X8450000Y18250000D02*
X8450000Y15750000D01*
X13550000Y15750000D02*
X13550000Y18250000D01*
X8450000Y14450000D02*
X13550000Y14450000D01*
X8450000Y19550000D02*
X13550000Y19550000D01*
D11*
%TO.C,SW1*%
X12000000Y3000000D02*
G75*
G03*
X12000000Y3000000I-1000000J0D01*
G01*
D12*
X13550000Y1750000D02*
X13550000Y4250000D01*
X8450000Y4250000D02*
X8450000Y1750000D01*
X13550000Y5550000D02*
X8450000Y5550000D01*
X13550000Y450000D02*
X8450000Y450000D01*
D11*
%TO.C,R1*%
X19087258Y827500D02*
X18612742Y827500D01*
X19087258Y1872500D02*
X18612742Y1872500D01*
%TO.C,R3*%
X21630000Y16753641D02*
X21630000Y16446359D01*
X20870000Y16753641D02*
X20870000Y16446359D01*
%TO.C,R2*%
X16730000Y17603641D02*
X16730000Y17296359D01*
X15970000Y17603641D02*
X15970000Y17296359D01*
%TO.C,Q1*%
X18000000Y18400000D02*
X19950000Y18400000D01*
X18000000Y18400000D02*
X18000000Y18300000D01*
X19950000Y16100000D02*
X18450000Y16100000D01*
%TO.C,C4*%
X17710000Y17557836D02*
X17710000Y17342164D01*
X16990000Y17557836D02*
X16990000Y17342164D01*
%TO.C,R7*%
X16950641Y14700000D02*
X16643359Y14700000D01*
X16950641Y15460000D02*
X16643359Y15460000D01*
%TO.C,R6*%
X16950641Y12160000D02*
X16643359Y12160000D01*
X16950641Y12920000D02*
X16643359Y12920000D01*
%TO.C,R5*%
X16950641Y7080000D02*
X16643359Y7080000D01*
X16950641Y7840000D02*
X16643359Y7840000D01*
%TO.C,R4*%
X16950641Y9620000D02*
X16643359Y9620000D01*
X16950641Y10380000D02*
X16643359Y10380000D01*
%TO.C,D7*%
X18410000Y14345000D02*
X20695000Y14345000D01*
X20695000Y14345000D02*
X20695000Y15815000D01*
X20695000Y15815000D02*
X18410000Y15815000D01*
%TO.C,D6*%
X18410000Y11805000D02*
X20695000Y11805000D01*
X20695000Y11805000D02*
X20695000Y13275000D01*
X20695000Y13275000D02*
X18410000Y13275000D01*
%TO.C,D5*%
X18410000Y6725000D02*
X20695000Y6725000D01*
X20695000Y6725000D02*
X20695000Y8195000D01*
X20695000Y8195000D02*
X18410000Y8195000D01*
%TO.C,D4*%
X18410000Y9265000D02*
X20695000Y9265000D01*
X20695000Y9265000D02*
X20695000Y10735000D01*
X20695000Y10735000D02*
X18410000Y10735000D01*
%TO.C,C3*%
X16810000Y5240580D02*
X16810000Y4959420D01*
X15790000Y5240580D02*
X15790000Y4959420D01*
%TO.C,C2*%
X21510000Y4707836D02*
X21510000Y4492164D01*
X20790000Y4707836D02*
X20790000Y4492164D01*
%TO.C,C5*%
X8540000Y10692164D02*
X8540000Y10907836D01*
X9260000Y10692164D02*
X9260000Y10907836D01*
%TO.C,C7*%
X12140000Y12942164D02*
X12140000Y13157836D01*
X12860000Y12942164D02*
X12860000Y13157836D01*
%TO.C,C6*%
X10640000Y12942164D02*
X10640000Y13157836D01*
X11360000Y12942164D02*
X11360000Y13157836D01*
%TO.C,C1*%
X16810000Y2240580D02*
X16810000Y1959420D01*
X15790000Y2240580D02*
X15790000Y1959420D01*
%TO.C,U2*%
X13110000Y8865000D02*
X13110000Y8390000D01*
X13110000Y8390000D02*
X12635000Y8390000D01*
X9890000Y11135000D02*
X9890000Y11610000D01*
X9890000Y11610000D02*
X10365000Y11610000D01*
X9890000Y8865000D02*
X9890000Y8390000D01*
X9890000Y8390000D02*
X10365000Y8390000D01*
X13110000Y11135000D02*
X13110000Y11610000D01*
%TO.C,U1*%
X20460000Y3100000D02*
X20460000Y4900000D01*
X17240000Y4900000D02*
X17240000Y2450000D01*
%TO.C,D3*%
X7900000Y7400000D02*
X7900000Y6100000D01*
X7100000Y7400000D02*
X7100000Y6100000D01*
X7100000Y6100000D02*
X7900000Y6100000D01*
%TO.C,D2*%
X7900000Y11350000D02*
X7900000Y10050000D01*
X7100000Y11350000D02*
X7100000Y10050000D01*
X7100000Y10050000D02*
X7900000Y10050000D01*
%TO.C,D1*%
X7100000Y8650000D02*
X7100000Y9950000D01*
X7900000Y8650000D02*
X7900000Y9950000D01*
X7900000Y9950000D02*
X7100000Y9950000D01*
%TD*%
M02*
